<?xml version="1.0" encoding="UTF-8"?>
<svg width="28px" height="32px" viewBox="0 0 28 32" version="1.1" xmlns="http://www.w3.org/2000/svg" xmlns:xlink="http://www.w3.org/1999/xlink">
    <title>left-arrow</title>
    <g id="Page-1" stroke="none" stroke-width="1" fill="none" fill-rule="evenodd">
        <g id="left-arrow" fill="#FFFFFF" fill-rule="nonzero">
            <path d="M27.7070351,30.293 C27.992943,30.5789943 28.078457,31.0090366 27.9237131,31.3826546 C27.7689692,31.7562725 27.404431,32 27.0000351,32 L16.0000351,32 C15.7348403,32 15.4805278,31.8945494 15.2930351,31.707 L0.293035108,16.707 C0.105416959,16.5195504 0,16.265213 0,16 C0,15.734787 0.105416959,15.4804496 0.293035108,15.293 L15.2930351,0.293 C15.4805278,0.105450625 15.7348403,0 16.0000351,0 L27.0000351,0 C27.404431,0 27.7689692,0.2437275 27.9237131,0.617345442 C28.078457,0.990963384 27.992943,1.42100575 27.7070351,1.707 L13.4141351,16 L27.7070351,30.293 Z" id="Path"></path>
        </g>
    </g>
</svg>