<svg width="32768" height="5179" viewBox="0 0 32768 5179" fill="none" xmlns="http://www.w3.org/2000/svg">
<path d="M6162.71 3018.42C6162.71 3023.12 6159.18 3078.36 6152.13 3184.14H4762.89C4791.09 3282.87 4845.16 3359.26 4925.08 3413.33C5007.35 3465.04 5109.61 3490.9 5231.84 3490.9C5323.52 3490.9 5402.27 3477.97 5468.08 3452.12C5536.25 3426.26 5604.42 3383.95 5672.59 3325.18L6025.19 3691.88C5839.49 3898.74 5567.99 4002.17 5210.69 4002.17C4987.37 4002.17 4791.09 3959.86 4621.85 3875.24C4452.6 3790.61 4320.96 3673.08 4226.93 3522.64C4135.26 3372.19 4089.42 3201.77 4089.42 3011.37C4089.42 2823.31 4134.08 2655.24 4223.41 2507.15C4315.08 2356.71 4440.84 2239.17 4600.69 2154.55C4760.53 2069.92 4940.36 2027.61 5140.17 2027.61C5330.57 2027.61 5503.34 2067.57 5658.49 2147.5C5813.63 2225.07 5935.87 2339.08 6025.19 2489.52C6116.87 2637.61 6162.71 2813.91 6162.71 3018.42ZM5143.69 2503.62C5040.26 2503.62 4953.29 2533.01 4882.77 2591.77C4814.6 2650.54 4771.11 2730.46 4752.31 2831.54H5535.08C5516.27 2730.46 5471.61 2650.54 5401.09 2591.77C5332.92 2533.01 5247.12 2503.62 5143.69 2503.62Z" fill="url(#paint0_linear)"/>
<path d="M8481.41 2059.35V3970.44H7843.2V3765.93C7772.68 3843.5 7688.06 3902.27 7589.33 3942.23C7490.6 3982.19 7386 4002.17 7275.52 4002.17C7028.7 4002.17 6831.24 3929.3 6683.15 3783.56C6537.41 3637.82 6464.54 3419.21 6464.54 3127.72V2059.35H7134.48V3018.42C7134.48 3161.81 7161.51 3266.41 7215.57 3332.23C7269.64 3398.05 7348.39 3430.96 7451.82 3430.96C7557.6 3430.96 7643.4 3394.52 7709.21 3321.65C7777.38 3246.43 7811.47 3132.43 7811.47 2979.63V2059.35H8481.41Z" fill="url(#paint1_linear)"/>
<path d="M9551.13 2288.54C9619.3 2201.56 9707.45 2136.92 9815.58 2094.61C9926.07 2049.94 10051.8 2027.61 10192.9 2027.61V2630.56C10131.7 2623.51 10081.2 2619.98 10041.2 2619.98C9897.86 2619.98 9785.03 2658.77 9702.75 2736.34C9622.83 2813.91 9582.87 2932.62 9582.87 3092.46V3970.44H8912.93V2059.35H9551.13V2288.54Z" fill="url(#paint2_linear)"/>
<path d="M11996.4 3490.9H10952.7L10758.7 3970.44H10046.5L11136 1502.24H11823.6L12916.6 3970.44H12190.3L11996.4 3490.9ZM11791.9 2976.11L11474.5 2186.28L11157.2 2976.11H11791.9Z" fill="url(#paint3_linear)"/>
<path d="M13082.8 1354.15H13752.8V3970.44H13082.8V1354.15Z" fill="url(#paint4_linear)"/>
<path d="M15390.5 2027.61C15564.5 2027.61 15722 2067.57 15863 2147.5C16006.4 2227.42 16119.2 2342.6 16201.5 2493.04C16286.1 2641.14 16328.4 2813.91 16328.4 3011.37C16328.4 3208.82 16286.1 3382.77 16201.5 3533.21C16119.2 3683.66 16006.4 3800.01 15863 3882.29C15722 3962.21 15564.5 4002.17 15390.5 4002.17C15139 4002.17 14950.9 3928.13 14826.4 3780.03V3970.44H14188.2V1354.15H14858.1V2225.07C14987.4 2093.43 15164.9 2027.61 15390.5 2027.61ZM15249.5 3469.75C15367 3469.75 15463.4 3429.78 15538.6 3349.86C15613.8 3267.59 15651.4 3154.76 15651.4 3011.37C15651.4 2870.33 15613.8 2759.84 15538.6 2679.92C15463.4 2600 15367 2560.04 15249.5 2560.04C15131.9 2560.04 15035.6 2600 14960.3 2679.92C14885.1 2759.84 14847.5 2870.33 14847.5 3011.37C14847.5 3154.76 14885.1 3267.59 14960.3 3349.86C15035.6 3429.78 15131.9 3469.75 15249.5 3469.75Z" fill="url(#paint5_linear)"/>
<path d="M18593.2 3018.42C18593.2 3023.12 18589.7 3078.36 18582.6 3184.14H17193.4C17221.6 3282.87 17275.7 3359.26 17355.6 3413.33C17437.9 3465.04 17540.1 3490.9 17662.4 3490.9C17754 3490.9 17832.8 3477.97 17898.6 3452.12C17966.8 3426.26 18034.9 3383.95 18103.1 3325.18L18455.7 3691.88C18270 3898.74 17998.5 4002.17 17641.2 4002.17C17417.9 4002.17 17221.6 3959.86 17052.4 3875.24C16883.1 3790.61 16751.5 3673.08 16657.5 3522.64C16565.8 3372.19 16519.9 3201.77 16519.9 3011.37C16519.9 2823.31 16564.6 2655.24 16653.9 2507.15C16745.6 2356.71 16871.4 2239.17 17031.2 2154.55C17191.1 2069.92 17370.9 2027.61 17570.7 2027.61C17761.1 2027.61 17933.9 2067.57 18089 2147.5C18244.2 2225.07 18366.4 2339.08 18455.7 2489.52C18547.4 2637.61 18593.2 2813.91 18593.2 3018.42ZM17574.2 2503.62C17470.8 2503.62 17383.8 2533.01 17313.3 2591.77C17245.1 2650.54 17201.6 2730.46 17182.8 2831.54H17965.6C17946.8 2730.46 17902.1 2650.54 17831.6 2591.77C17763.4 2533.01 17677.6 2503.62 17574.2 2503.62Z" fill="url(#paint6_linear)"/>
<path d="M19540.3 2288.54C19608.5 2201.56 19696.6 2136.92 19804.8 2094.61C19915.2 2049.94 20041 2027.61 20182 2027.61V2630.56C20120.9 2623.51 20070.4 2619.98 20030.4 2619.98C19887 2619.98 19774.2 2658.77 19691.9 2736.34C19612 2813.91 19572 2932.62 19572 3092.46V3970.44H18902.1V2059.35H19540.3V2288.54Z" fill="url(#paint7_linear)"/>
<path d="M21835.8 3892.87C21779.4 3928.13 21710 3955.16 21627.7 3973.96C21547.8 3992.77 21462 4002.17 21370.3 4002.17C21121.2 4002.17 20929.6 3941.05 20795.6 3818.82C20661.6 3696.59 20594.6 3514.41 20594.6 3272.29V2630.56H20316.1V2129.87H20594.6V1632.7H21264.6V2129.87H21701.8V2630.56H21264.6V3265.24C21264.6 3333.41 21282.2 3387.47 21317.4 3427.43C21355.1 3465.04 21404.4 3483.85 21465.5 3483.85C21543.1 3483.85 21611.3 3463.87 21670 3423.91L21835.8 3892.87Z" fill="url(#paint8_linear)"/>
<path d="M22908.6 2027.61C23225.9 2027.61 23468.1 2100.48 23635 2246.22C23801.9 2389.62 23885.3 2610.58 23885.3 2909.11V3970.44H23261.2V3723.62C23164.8 3909.32 22976.8 4002.17 22697 4002.17C22549 4002.17 22420.8 3976.31 22312.7 3924.6C22204.6 3872.89 22122.3 3803.54 22065.9 3716.57C22011.8 3627.24 21984.8 3526.16 21984.8 3413.33C21984.8 3232.33 22054.1 3092.46 22192.8 2993.74C22331.5 2892.66 22545.4 2842.12 22834.6 2842.12H23215.4C23203.6 2639.96 23068.5 2538.88 22809.9 2538.88C22718.2 2538.88 22625.4 2554.16 22531.3 2584.72C22437.3 2612.93 22357.4 2652.89 22291.6 2704.6L22065.9 2249.75C22171.7 2179.23 22299.8 2125.17 22450.2 2087.55C22603 2047.59 22755.8 2027.61 22908.6 2027.61ZM22883.9 3579.05C22961.5 3579.05 23029.7 3560.25 23088.4 3522.64C23147.2 3485.03 23189.5 3429.78 23215.4 3356.91V3191.19H22926.2C22731.1 3191.19 22633.6 3255.84 22633.6 3385.12C22633.6 3443.89 22655.9 3490.9 22700.6 3526.16C22745.2 3561.42 22806.4 3579.05 22883.9 3579.05Z" fill="url(#paint9_linear)"/>
<path d="M24865.3 2055.82H24107.2V1502.24H26318V2055.82H25563.4V3970.44H24865.3V2055.82Z" fill="url(#paint10_linear)"/>
<path d="M28306.9 3018.42C28306.9 3023.12 28303.4 3078.36 28296.4 3184.14H26907.1C26935.3 3282.87 26989.4 3359.26 27069.3 3413.33C27151.6 3465.04 27253.8 3490.9 27376.1 3490.9C27467.8 3490.9 27546.5 3477.97 27612.3 3452.12C27680.5 3426.26 27748.7 3383.95 27816.8 3325.18L28169.4 3691.88C27983.7 3898.74 27712.2 4002.17 27354.9 4002.17C27131.6 4002.17 26935.3 3959.86 26766.1 3875.24C26596.8 3790.61 26465.2 3673.08 26371.2 3522.64C26279.5 3372.19 26233.6 3201.77 26233.6 3011.37C26233.6 2823.31 26278.3 2655.24 26367.6 2507.15C26459.3 2356.71 26585.1 2239.17 26744.9 2154.55C26904.8 2069.92 27084.6 2027.61 27284.4 2027.61C27474.8 2027.61 27647.6 2067.57 27802.7 2147.5C27957.9 2225.07 28080.1 2339.08 28169.4 2489.52C28261.1 2637.61 28306.9 2813.91 28306.9 3018.42ZM27287.9 2503.62C27184.5 2503.62 27097.5 2533.01 27027 2591.77C26958.8 2650.54 26915.3 2730.46 26896.5 2831.54H27679.3C27660.5 2730.46 27615.8 2650.54 27545.3 2591.77C27477.2 2533.01 27391.4 2503.62 27287.9 2503.62Z" fill="url(#paint11_linear)"/>
<path d="M29592.5 4002.17C29381 4002.17 29191.7 3959.86 29024.8 3875.24C28857.9 3790.61 28727.5 3673.08 28633.5 3522.64C28541.8 3372.19 28495.9 3201.77 28495.9 3011.37C28495.9 2820.96 28541.8 2651.71 28633.5 2503.62C28727.5 2353.18 28857.9 2236.82 29024.8 2154.55C29191.7 2069.92 29381 2027.61 29592.5 2027.61C29808.8 2027.61 29995.7 2074.63 30153.2 2168.65C30310.7 2260.33 30422.3 2388.44 30488.1 2552.99L29969.8 2817.44C29882.8 2645.84 29755.9 2560.04 29589 2560.04C29469.1 2560.04 29369.2 2600 29289.3 2679.92C29211.7 2759.84 29172.9 2870.33 29172.9 3011.37C29172.9 3154.76 29211.7 3267.59 29289.3 3349.86C29369.2 3429.78 29469.1 3469.75 29589 3469.75C29755.9 3469.75 29882.8 3383.95 29969.8 3212.35L30488.1 3476.8C30422.3 3641.34 30310.7 3770.63 30153.2 3864.66C29995.7 3956.33 29808.8 4002.17 29592.5 4002.17Z" fill="url(#paint12_linear)"/>
<path d="M31978.2 2027.61C32215.6 2027.61 32406 2098.13 32549.4 2239.17C32695.1 2380.21 32768 2592.95 32768 2877.38V3970.44H32098V2986.68C32098 2725.76 31993.4 2595.3 31784.2 2595.3C31669 2595.3 31576.2 2632.91 31505.7 2708.13C31437.5 2783.35 31403.4 2896.18 31403.4 3046.63V3970.44H30733.5V1354.15H31403.4V2235.65C31476.3 2167.48 31562.1 2115.76 31660.8 2080.5C31759.5 2045.24 31865.3 2027.61 31978.2 2027.61Z" fill="url(#paint13_linear)"/>
<path d="M3772 1170.96V3630.96H3362C3034 3630.96 2952 3630.96 2952 2564.96V1334.96C2952 1252.96 2889.94 1170.96 2788 1170.96H3772Z" fill="url(#paint14_linear)"/>
<path d="M2501.71 4461.15C2501.69 4460.95 2501.72 4460.96 2501.83 4461.78C2501.77 4461.65 2501.72 4461.32 2501.71 4461.15Z" fill="url(#paint15_linear)"/>
<path d="M1394 1498.96H983.999V3958.96H1968C1886 3958.96 1804 3876.96 1804 3794.96V2564.96C1804 1712.16 1804 1498.96 1394 1498.96Z" fill="url(#paint16_linear)"/>
<path fill-rule="evenodd" clip-rule="evenodd" d="M0 2564.96C0 3878.29 1064.67 4942.96 2378 4942.96C2478.25 4942.96 2576.39 4935.57 2673.38 4923.53C2746.8 4911.82 2819.78 4893.96 2920.51 4868.83C2957.62 4958.66 3042.55 5017.9 3145.98 5021.05C3188.6 5022.35 3214.07 5019.81 3249.92 5002.36C3280.26 5071.87 3315.15 5126.33 3355.14 5177.97C3771.35 5001.95 4002.22 4870.8 4294.19 4605.27C4311.99 4611.74 4331.1 4615.53 4351.06 4616.14C4451.8 4619.21 4535.96 4540 4539.02 4439.24C4542.09 4338.47 4462.91 4254.3 4362.16 4251.23C4261.42 4248.17 4177.27 4327.37 4174.2 4428.14C4173.22 4460.32 4174.2 4484.25 4188.02 4510.94C4052.03 4635.14 3969.1 4688.15 3812.59 4787.98C3768.31 4721.56 3761.74 4712.51 3733.69 4673.85L3733.69 4673.85L3733.67 4673.83C3726.92 4664.53 3718.92 4653.5 3708.86 4639.56C3728.4 4621.51 3747.49 4609.51 3764.17 4599.03C3766.51 4597.56 3768.8 4596.12 3771.03 4594.7C3796.72 4609.95 3827.84 4615.57 3859.81 4616.55C3960.55 4619.61 4044.71 4540.41 4047.77 4439.64C4050.84 4338.88 3971.66 4254.71 3870.91 4251.64C3770.17 4248.57 3686.02 4327.78 3682.95 4428.54C3682.81 4433.26 3682.55 4437.63 3682.31 4441.78L3682.31 4441.79V4441.8C3681.46 4456.51 3680.77 4468.51 3685.6 4483.55C3668.93 4496.39 3652.78 4508.53 3637.07 4520.33C3594.32 4552.46 3554.87 4582.1 3517.39 4616.55L3523.78 4627.4L3525.88 4630.98L3527.5 4633.72L3529.26 4636.72L3530.28 4638.45C3585.54 4732.38 3607.19 4769.17 3673.69 4874.88C3665.46 4879.82 3657.79 4884.43 3650.6 4888.76C3559.85 4943.36 3544.9 4952.36 3441.95 4993.39L3426.5 4996.79C3398.99 4965.31 3387.65 4943.25 3373.01 4905.55C3398.89 4867.08 3406.7 4824.01 3408.22 4774.25C3412.49 4633.67 3302.02 4516.23 3161.47 4511.96C3022.88 4507.74 2902.04 4579.87 2894.73 4717.65C2799.78 4740.24 2723.93 4755.29 2645.55 4764.82C2557.74 4775.41 2468.66 4778.96 2378 4778.96C2371.02 4778.96 2364.05 4778.93 2357.09 4778.86L2344.79 4603.89C2369.17 4602.31 2390.4 4601.54 2409.92 4600.83C2457 4599.12 2494.15 4597.77 2541.73 4586.32C2574 4626.48 2623.53 4644.73 2679.05 4646.42C2779.8 4649.49 2863.95 4570.28 2867.02 4469.52C2870.08 4368.75 2790.9 4284.58 2690.16 4281.51C2589.41 4278.45 2505.26 4357.65 2502.19 4458.42C2502.1 4461.63 2501.94 4462.03 2501.83 4461.78C2501.89 4462.28 2501.98 4463.07 2502.11 4464.3C2426.6 4480.2 2359.96 4479.96 2284.17 4479.69H2284.16H2284.15H2284.14H2284.13H2284.12H2284.11C2252.87 4479.58 2220.08 4479.47 2184.48 4480.48L2197.6 4771.71C2093.59 4763.33 1991.6 4747.75 1892.15 4725.48C1831.8 4713.07 1752.2 4689.67 1719.95 4679.52C818.532 4399.3 164 3558.57 164 2564.96C164 2109.82 301.334 1686.76 536.825 1334.96H1394C1804 1334.96 1968 1498.96 1968 2564.96C1968 3417.76 2378 3958.96 3362 3958.96H4512.87C4420.21 3913.45 4295.84 3834.58 4274.66 3794.96H3362C2952 3794.96 2788 3630.96 2788 2564.96C2788 1712.16 2378 1170.96 1394 1170.96H657.86H451.224C167.36 1562.63 0 2044.25 0 2564.96ZM2686.22 4528.05C2721.05 4529.11 2750.15 4501.72 2751.21 4466.88C2752.27 4432.03 2724.89 4402.93 2690.06 4401.87C2655.22 4400.8 2626.12 4428.19 2625.06 4463.04C2624 4497.88 2651.38 4526.99 2686.22 4528.05ZM3863.46 4500.72C3898.3 4501.78 3927.4 4474.4 3928.46 4439.55C3929.52 4404.71 3902.14 4375.6 3867.3 4374.54C3832.46 4373.48 3803.36 4400.87 3802.3 4435.71C3801.24 4470.56 3828.62 4499.66 3863.46 4500.72ZM4357.83 4498.48C4392.66 4499.54 4421.77 4472.15 4422.83 4437.31C4423.89 4402.46 4396.5 4373.36 4361.67 4372.3C4326.83 4371.24 4297.73 4398.62 4296.67 4433.47C4295.61 4468.31 4322.99 4497.42 4357.83 4498.48ZM3155.98 4884.57C3219.97 4886.51 3273.42 4836.21 3275.37 4772.2C3277.32 4708.2 3227.02 4654.73 3163.03 4652.79C3099.04 4650.84 3045.59 4701.15 3043.64 4765.15C3041.69 4829.15 3091.99 4882.62 3155.98 4884.57Z" fill="url(#paint17_linear)"/>
<path fill-rule="evenodd" clip-rule="evenodd" d="M1417.13 323.358C1226.48 332.206 921.718 405.533 913.904 431.986C910.109 444.831 966.648 469.788 1027.05 461.987C1091.04 453.724 1176.38 442.704 1251.98 447.625C1336.25 453.111 1349.85 477.587 1289.06 495.617C1104.24 550.431 689.556 880.472 707.398 920.327C717.104 942.009 802.575 922.634 883.482 871.318L883.484 871.317C951.292 828.31 1027.21 780.162 1082.91 761.223C1171.33 731.156 1201.99 723.364 1230.78 716.046L1230.79 716.044L1230.8 716.042L1230.81 716.039C1237.72 714.284 1244.52 712.556 1251.98 710.553C1258.81 708.721 1265.29 706.977 1271.44 705.319C1338 687.398 1437.87 664.171 1476.83 699.552C1515.44 734.607 1458.73 806.947 1411.03 867.797C1374.81 913.998 1343.78 953.576 1363.61 965.18C1388.26 979.609 1524.3 900.455 1586.81 824.404C1605.36 801.834 1616.53 782.301 1625.72 766.232C1647.49 728.157 1658.13 709.533 1729.57 716.044C1829.89 725.187 1891.6 850.277 1891.6 914.981C1891.6 921.599 1891.45 928.035 1891.31 934.19L1891.31 934.198V934.201C1890.46 970.641 1889.84 997.249 1921.87 993.484C1967.53 988.117 1974.51 893.69 1966.7 841.446C1958.88 789.202 1955.47 728.15 2006.54 645.71C2018.59 626.267 2028.5 615.474 2038.62 604.443C2040.27 602.65 2041.92 600.851 2043.59 599.007C2066 574.228 2081.82 556.747 2115.33 540.346C2178.48 509.443 2277.9 520.077 2378.17 530.8L2378.17 530.8L2378.17 530.8C2413.44 534.573 2448.82 538.356 2482.75 540.346C2496.69 541.164 2510.57 542.066 2524.22 542.953C2621.41 549.272 2706.59 554.809 2717.14 523.432C2732.9 476.535 2584.82 452.901 2460.33 433.034C2387.32 421.382 2325.31 405.181 2303.47 398.03C2238.6 376.79 2207.54 350.96 2378 350.96C3438.22 350.96 4323.13 1090.45 4539.98 2085.67C4569.54 2057.79 4650.22 2021.3 4691.44 2012.28C4447.95 957.634 3506.62 186.96 2378 186.96C1977.8 169.37 1888.25 116.225 1834.64 79.1411C1831.53 76.9868 1828.55 74.9281 1825.66 72.9798C1814.75 65.6263 1802.24 54.9927 1789.44 44.1075C1758.37 17.6949 1725.56 -10.1988 1709.65 3.69434C1690.15 20.722 1714.14 64.2816 1733.88 100.117L1733.92 100.201L1734.42 101.105C1734.71 101.63 1735 102.152 1735.28 102.673C1755.18 138.836 1747.35 164.966 1743.2 178.794L1743.2 178.795C1741.94 182.975 1741.03 186.031 1741.32 187.899C1696.98 310.939 1545.48 317.656 1431.71 322.701L1431.69 322.702C1426.76 322.921 1421.91 323.136 1417.13 323.358ZM1776.41 600.195C1847.33 600.195 1904.82 542.736 1904.82 471.856C1904.82 400.977 1847.33 343.517 1776.41 343.517C1705.49 343.517 1648 400.977 1648 471.856C1648 542.736 1705.49 600.195 1776.41 600.195Z" fill="url(#paint18_linear)"/>
<defs>
<linearGradient id="paint0_linear" x1="0" y1="0" x2="32768" y2="4049.98" gradientUnits="userSpaceOnUse">
<stop stop-color="#7967E1"/>
<stop offset="1" stop-color="#1B9FD6"/>
</linearGradient>
<linearGradient id="paint1_linear" x1="0" y1="0" x2="32768" y2="4049.98" gradientUnits="userSpaceOnUse">
<stop stop-color="#7967E1"/>
<stop offset="1" stop-color="#1B9FD6"/>
</linearGradient>
<linearGradient id="paint2_linear" x1="0" y1="0" x2="32768" y2="4049.98" gradientUnits="userSpaceOnUse">
<stop stop-color="#7967E1"/>
<stop offset="1" stop-color="#1B9FD6"/>
</linearGradient>
<linearGradient id="paint3_linear" x1="0" y1="0" x2="32768" y2="4049.98" gradientUnits="userSpaceOnUse">
<stop stop-color="#7967E1"/>
<stop offset="1" stop-color="#1B9FD6"/>
</linearGradient>
<linearGradient id="paint4_linear" x1="0" y1="0" x2="32768" y2="4049.98" gradientUnits="userSpaceOnUse">
<stop stop-color="#7967E1"/>
<stop offset="1" stop-color="#1B9FD6"/>
</linearGradient>
<linearGradient id="paint5_linear" x1="0" y1="0" x2="32768" y2="4049.98" gradientUnits="userSpaceOnUse">
<stop stop-color="#7967E1"/>
<stop offset="1" stop-color="#1B9FD6"/>
</linearGradient>
<linearGradient id="paint6_linear" x1="0" y1="0" x2="32768" y2="4049.98" gradientUnits="userSpaceOnUse">
<stop stop-color="#7967E1"/>
<stop offset="1" stop-color="#1B9FD6"/>
</linearGradient>
<linearGradient id="paint7_linear" x1="0" y1="0" x2="32768" y2="4049.98" gradientUnits="userSpaceOnUse">
<stop stop-color="#7967E1"/>
<stop offset="1" stop-color="#1B9FD6"/>
</linearGradient>
<linearGradient id="paint8_linear" x1="0" y1="0" x2="32768" y2="4049.98" gradientUnits="userSpaceOnUse">
<stop stop-color="#7967E1"/>
<stop offset="1" stop-color="#1B9FD6"/>
</linearGradient>
<linearGradient id="paint9_linear" x1="0" y1="0" x2="32768" y2="4049.98" gradientUnits="userSpaceOnUse">
<stop stop-color="#7967E1"/>
<stop offset="1" stop-color="#1B9FD6"/>
</linearGradient>
<linearGradient id="paint10_linear" x1="0" y1="0" x2="32768" y2="4049.98" gradientUnits="userSpaceOnUse">
<stop stop-color="#7967E1"/>
<stop offset="1" stop-color="#1B9FD6"/>
</linearGradient>
<linearGradient id="paint11_linear" x1="0" y1="0" x2="32768" y2="4049.98" gradientUnits="userSpaceOnUse">
<stop stop-color="#7967E1"/>
<stop offset="1" stop-color="#1B9FD6"/>
</linearGradient>
<linearGradient id="paint12_linear" x1="0" y1="0" x2="32768" y2="4049.98" gradientUnits="userSpaceOnUse">
<stop stop-color="#7967E1"/>
<stop offset="1" stop-color="#1B9FD6"/>
</linearGradient>
<linearGradient id="paint13_linear" x1="0" y1="0" x2="32768" y2="4049.98" gradientUnits="userSpaceOnUse">
<stop stop-color="#7967E1"/>
<stop offset="1" stop-color="#1B9FD6"/>
</linearGradient>
<linearGradient id="paint14_linear" x1="0" y1="0" x2="32768" y2="4049.98" gradientUnits="userSpaceOnUse">
<stop stop-color="#7967E1"/>
<stop offset="1" stop-color="#1B9FD6"/>
</linearGradient>
<linearGradient id="paint15_linear" x1="0" y1="0" x2="32768" y2="4049.98" gradientUnits="userSpaceOnUse">
<stop stop-color="#7967E1"/>
<stop offset="1" stop-color="#1B9FD6"/>
</linearGradient>
<linearGradient id="paint16_linear" x1="0" y1="0" x2="32768" y2="4049.98" gradientUnits="userSpaceOnUse">
<stop stop-color="#7967E1"/>
<stop offset="1" stop-color="#1B9FD6"/>
</linearGradient>
<linearGradient id="paint17_linear" x1="0" y1="0" x2="32768" y2="4049.98" gradientUnits="userSpaceOnUse">
<stop stop-color="#7967E1"/>
<stop offset="1" stop-color="#1B9FD6"/>
</linearGradient>
<linearGradient id="paint18_linear" x1="0" y1="0" x2="32768" y2="4049.98" gradientUnits="userSpaceOnUse">
<stop stop-color="#7967E1"/>
<stop offset="1" stop-color="#1B9FD6"/>
</linearGradient>
</defs>
</svg>
