<svg width="5800" height="6315" viewBox="0 0 5800 6315" fill="none" xmlns="http://www.w3.org/2000/svg">
<path d="M4600 1428V4428H4100C3700 4428 3600 4428 3600 3128V1628C3600 1528 3524.32 1428 3400 1428H4600Z" fill="url(#paint0_linear)"/>
<path d="M1200 4828V1828H1700C2200 1828 2200 2088 2200 3128V4628C2200 4728 2300 4828 2400 4828H1200Z" fill="url(#paint1_linear)"/>
<path d="M3050.87 5440.43C3050.85 5440.19 3050.88 5440.2 3051.01 5441.2C3050.94 5441.03 3050.88 5440.64 3050.87 5440.43Z" fill="url(#paint2_linear)"/>
<path fill-rule="evenodd" clip-rule="evenodd" d="M0 3128C0 4729.63 1298.37 6028 2900 6028C3022.26 6028 3141.94 6018.99 3260.22 6004.3C3349.76 5990.02 3438.76 5968.24 3561.6 5937.6C3606.86 6047.16 3710.43 6119.4 3836.57 6123.23C3888.54 6124.81 3919.59 6121.72 3963.32 6100.44C4000.32 6185.21 4042.86 6251.63 4091.64 6314.6C4599.21 6099.94 4880.76 5940.01 5236.82 5616.19C5258.52 5624.08 5281.83 5628.7 5306.17 5629.44C5429.03 5633.18 5531.66 5536.59 5535.4 5413.71C5539.14 5290.82 5442.57 5188.17 5319.72 5184.44C5196.86 5180.7 5094.23 5277.28 5090.49 5400.17C5089.3 5439.42 5090.49 5468.6 5107.35 5501.16C4941.5 5652.61 4840.37 5717.26 4649.5 5839C4582.5 5738.5 4586.3 5745.71 4523 5658C4550.17 5632.91 4576.61 5617.41 4598.82 5603.3C4630.15 5621.9 4668.1 5628.75 4707.09 5629.94C4829.95 5633.68 4932.57 5537.09 4936.31 5414.2C4940.05 5291.32 4843.49 5188.67 4720.63 5184.93C4597.77 5181.19 4495.14 5277.78 4491.4 5400.66C4491.23 5406.41 4490.92 5411.74 4490.63 5416.81L4490.63 5416.82V5416.83C4489.59 5434.77 4488.75 5449.4 4494.64 5467.75C4419 5526 4352 5572.5 4289.5 5629.94C4369 5765 4393 5806.5 4480.11 5944.98C4343.5 6027 4333 6035.5 4197.5 6089.5L4178.66 6093.66C4145.11 6055.26 4131.29 6028.35 4113.43 5982.38C4144.98 5935.47 4154.52 5882.95 4156.36 5822.26C4161.58 5650.82 4026.86 5507.61 3855.46 5502.39C3686.45 5497.25 3539.08 5585.21 3530.16 5753.23C3414.37 5780.78 3321.86 5799.14 3226.29 5810.75C3119.2 5823.67 3010.57 5828 2900 5828C2891.49 5828 2882.99 5827.96 2874.5 5827.88L2859.5 5614.5C2960.94 5607.93 3017.59 5612.83 3099.68 5593.08C3139.03 5642.05 3199.43 5664.31 3267.14 5666.37C3390 5670.11 3492.63 5573.52 3496.37 5450.64C3500.11 5327.75 3403.54 5225.1 3280.68 5221.36C3157.82 5217.62 3055.2 5314.21 3051.46 5437.1C3051.34 5441.02 3051.14 5441.5 3051.01 5441.2C3051.09 5441.8 3051.2 5442.77 3051.35 5444.27C2921.29 5471.65 2812.82 5459.79 2664 5464L2680 5819.17C2553.16 5808.94 2428.79 5789.94 2307.5 5762.79C2233.9 5747.65 2136.83 5719.11 2097.5 5706.74C998.21 5365.01 200 4339.72 200 3128C200 2572.96 367.481 2057.03 654.665 1628H1700C2200 1628 2400 1828 2400 3128C2400 4168 2900 4828 4100 4828H4997.73H5249.73C5595.9 4350.35 5800 3763.01 5800 3128C5800 1526.37 4501.63 228 2900 228C2411.96 206.549 2302.75 141.738 2237.37 96.5136C2233.57 93.8864 2229.94 91.3757 2226.42 88.9998C2213.11 80.0322 2197.86 67.0643 2182.24 53.7897C2144.35 21.5792 2104.34 -12.4375 2084.94 4.5053C2061.16 25.2707 2090.41 78.3923 2114.48 122.094L2114.54 122.196L2115.15 123.299C2115.5 123.939 2115.85 124.576 2116.2 125.211C2140.47 169.312 2130.91 201.179 2125.85 218.041L2125.85 218.043C2124.32 223.141 2123.21 226.867 2123.56 229.145C2069.49 379.194 1884.74 387.386 1745.99 393.539L1745.96 393.54C1739.95 393.806 1734.03 394.069 1728.21 394.339C1495.7 405.129 1124.05 494.553 1114.52 526.812C1109.89 542.478 1178.84 572.912 1252.51 563.399C1330.54 553.322 1434.6 539.883 1526.81 545.885C1629.58 552.575 1646.16 582.424 1572.03 604.411C1346.64 671.258 840.923 1073.75 862.68 1122.35C874.517 1148.79 978.75 1125.16 1077.42 1062.58L1077.42 1062.58C1160.11 1010.14 1252.69 951.417 1320.62 928.321C1428.45 891.655 1465.84 882.152 1500.95 873.228L1500.97 873.225L1500.98 873.222L1500.99 873.219C1509.41 871.078 1517.7 868.971 1526.81 866.529C1535.13 864.295 1543.04 862.167 1550.54 860.146C1631.7 838.29 1753.5 809.965 1801.02 853.113C1848.1 895.863 1778.94 984.083 1720.76 1058.29C1676.59 1114.63 1638.76 1162.9 1662.94 1177.05C1693.01 1194.65 1858.9 1098.12 1935.14 1005.37C1957.76 977.847 1971.38 954.026 1982.58 934.43C2009.13 887.997 2022.12 865.285 2109.23 873.225C2231.57 884.374 2306.83 1036.92 2306.83 1115.83C2306.83 1123.9 2306.65 1131.75 2306.47 1139.26L2306.47 1139.27V1139.27C2305.44 1183.71 2304.68 1216.16 2343.74 1211.57C2399.43 1205.02 2407.94 1089.87 2398.42 1026.15C2388.89 962.443 2384.72 887.988 2447 787.452C2461.69 763.74 2473.78 750.579 2486.13 737.126C2488.14 734.939 2490.15 732.745 2492.18 730.497C2519.52 700.279 2538.8 678.96 2579.68 658.959C2656.68 621.272 2777.93 634.24 2900.21 647.318L2900.21 647.318L2900.21 647.318C2943.22 651.918 2986.36 656.532 3027.75 658.959C3044.75 659.956 3061.68 661.057 3078.32 662.138C3196.85 669.844 3300.73 676.597 3313.59 638.332C3332.81 581.141 3152.22 552.319 3000.41 528.091C2911.37 513.88 2835.75 494.123 2809.11 485.402C2730 459.5 2692.12 428 2900 428C4391.17 428 5600 1636.83 5600 3128C5600 3683.04 5432.52 4198.97 5145.34 4628H4100C3600 4628 3400 4428 3400 3128C3400 2088 2900 1428 1700 1428H802.269H550.273C204.098 1905.65 0 2492.99 0 3128ZM2166.35 731.946C2252.84 731.946 2322.95 661.873 2322.95 575.435C2322.95 488.996 2252.84 418.924 2166.35 418.924C2079.86 418.924 2009.75 488.996 2009.75 575.435C2009.75 661.873 2079.86 731.946 2166.35 731.946ZM3275.87 5522.02C3318.36 5523.31 3353.85 5489.91 3355.14 5447.42C3356.43 5404.92 3323.04 5369.42 3280.56 5368.13C3238.07 5366.84 3202.58 5400.24 3201.29 5442.73C3200 5485.23 3233.39 5520.72 3275.87 5522.02ZM4711.54 5488.69C4754.02 5489.98 4789.51 5456.58 4790.8 5414.09C4792.1 5371.6 4758.71 5336.1 4716.22 5334.81C4673.74 5333.51 4638.25 5366.91 4636.95 5409.41C4635.66 5451.9 4669.05 5487.4 4711.54 5488.69ZM5314.43 5485.96C5356.91 5487.25 5392.4 5453.85 5393.69 5411.35C5394.99 5368.86 5361.59 5333.36 5319.11 5332.07C5276.62 5330.78 5241.14 5364.18 5239.84 5406.67C5238.55 5449.17 5271.94 5484.66 5314.43 5485.96ZM3848.75 5956.79C3926.79 5959.17 3991.98 5897.82 3994.35 5819.76C3996.73 5741.71 3935.39 5676.51 3857.36 5674.13C3779.32 5671.76 3714.13 5733.11 3711.76 5811.16C3709.38 5889.22 3770.72 5954.42 3848.75 5956.79Z" fill="url(#paint3_linear)"/>
<defs>
<linearGradient id="paint0_linear" x1="0" y1="0" x2="5800" y2="6315" gradientUnits="userSpaceOnUse">
<stop offset="0.182292" stop-color="#7967E1"/>
<stop offset="1" stop-color="#1B9FD6"/>
</linearGradient>
<linearGradient id="paint1_linear" x1="0" y1="0" x2="5800" y2="6315" gradientUnits="userSpaceOnUse">
<stop offset="0.182292" stop-color="#7967E1"/>
<stop offset="1" stop-color="#1B9FD6"/>
</linearGradient>
<linearGradient id="paint2_linear" x1="0" y1="0" x2="5800" y2="6315" gradientUnits="userSpaceOnUse">
<stop offset="0.182292" stop-color="#7967E1"/>
<stop offset="1" stop-color="#1B9FD6"/>
</linearGradient>
<linearGradient id="paint3_linear" x1="0" y1="0" x2="5800" y2="6315" gradientUnits="userSpaceOnUse">
<stop offset="0.182292" stop-color="#7967E1"/>
<stop offset="1" stop-color="#1B9FD6"/>
</linearGradient>
</defs>
</svg>
