<svg width="32768" height="4707" viewBox="0 0 32768 4707" fill="none" xmlns="http://www.w3.org/2000/svg">
<path d="M3428.55 1064.34V3300.35H3055.88C2757.75 3300.35 2683.21 3300.35 2683.21 2331.41V1213.41C2683.21 1138.88 2626.81 1064.34 2534.15 1064.34H3428.55Z" fill="url(#paint0_linear)"/>
<path d="M2273.92 4054.96C2273.91 4054.77 2273.94 4054.79 2274.03 4055.53C2273.98 4055.4 2273.94 4055.11 2273.92 4054.96Z" fill="url(#paint1_linear)"/>
<path d="M1267.07 1362.48H894.405V3598.49H1788.81C1714.28 3598.49 1639.74 3523.95 1639.74 3449.42V2331.41C1639.74 1556.26 1639.74 1362.48 1267.07 1362.48Z" fill="url(#paint2_linear)"/>
<path fill-rule="evenodd" clip-rule="evenodd" d="M0 2331.41C0 3525.17 967.727 4492.89 2161.48 4492.89C2252.6 4492.89 2341.8 4486.18 2429.96 4475.23C2496.7 4464.59 2563.03 4448.35 2654.6 4425.51C2688.33 4507.17 2765.52 4561.01 2859.53 4563.87C2898.28 4565.05 2921.42 4562.75 2954.01 4546.88C2981.59 4610.07 3013.3 4659.57 3049.65 4706.51C3427.96 4546.51 3637.81 4427.31 3903.2 4185.95C3919.37 4191.84 3936.75 4195.28 3954.89 4195.83C4046.46 4198.62 4122.95 4126.63 4125.74 4035.04C4128.52 3943.45 4056.55 3866.94 3964.98 3864.15C3873.41 3861.37 3796.92 3933.36 3794.13 4024.95C3793.24 4054.2 3794.13 4075.95 3806.7 4100.22C3683.08 4213.1 3607.71 4261.29 3465.44 4352.02C3425.2 4291.66 3419.23 4283.43 3393.73 4248.29L3393.73 4248.29L3393.72 4248.27C3387.58 4239.81 3380.31 4229.79 3371.16 4217.12C3388.92 4200.71 3406.27 4189.81 3421.44 4180.28C3423.56 4178.95 3425.64 4177.64 3427.67 4176.35C3451.02 4190.21 3479.31 4195.32 3508.37 4196.2C3599.94 4198.99 3676.43 4127 3679.22 4035.41C3682 3943.82 3610.03 3867.31 3518.46 3864.52C3426.89 3861.73 3350.4 3933.72 3347.61 4025.32C3347.48 4029.6 3347.25 4033.57 3347.03 4037.35L3347.03 4037.36V4037.37C3346.26 4050.73 3345.63 4061.64 3350.02 4075.31C3334.87 4086.98 3320.19 4098.02 3305.91 4108.75C3267.05 4137.95 3231.19 4164.9 3197.12 4196.2L3202.93 4206.07L3204.85 4209.32L3206.31 4211.81L3207.92 4214.54L3208.84 4216.11C3259.07 4301.49 3278.75 4334.93 3339.2 4431.01C3331.72 4435.5 3324.74 4439.7 3318.2 4443.63C3235.72 4493.26 3222.13 4501.44 3128.55 4538.73L3114.51 4541.83C3089.51 4513.21 3079.2 4493.16 3065.89 4458.89C3089.41 4423.93 3096.51 4384.78 3097.89 4339.54C3101.78 4211.76 3001.37 4105.02 2873.62 4101.14C2747.64 4097.3 2637.81 4162.86 2631.16 4288.1C2544.86 4308.63 2475.91 4322.31 2404.67 4330.97C2324.86 4340.6 2243.89 4343.82 2161.48 4343.82C2155.14 4343.82 2148.8 4343.8 2142.47 4343.74L2131.29 4184.7C2153.46 4183.26 2172.75 4182.56 2190.49 4181.92C2233.28 4180.36 2267.06 4179.14 2310.3 4168.73C2339.63 4205.23 2384.66 4221.82 2435.12 4223.36C2526.69 4226.14 2603.18 4154.15 2605.97 4062.56C2608.76 3970.97 2536.79 3894.46 2445.21 3891.67C2353.64 3888.89 2277.15 3960.88 2274.36 4052.47C2274.28 4055.39 2274.13 4055.75 2274.03 4055.53C2274.09 4055.98 2274.17 4056.7 2274.29 4057.81C2205.65 4072.27 2145.08 4072.05 2076.19 4071.81H2076.18H2076.17H2076.16H2076.16H2076.15H2076.14C2047.75 4071.71 2017.94 4071.61 1985.58 4072.52L1997.5 4337.24C1902.96 4329.62 1810.26 4315.46 1719.87 4295.22C1665.01 4283.94 1592.66 4262.67 1563.34 4253.44C744.003 3998.74 149.067 3234.55 149.067 2331.41C149.067 1917.72 273.897 1533.18 487.946 1213.41H1267.07C1639.74 1213.41 1788.81 1362.48 1788.81 2331.41C1788.81 3106.57 2161.48 3598.49 3055.88 3598.49H4065.81C4031.6 3584.44 3994.23 3562.91 3960.72 3539.92C3912.47 3506.82 3872.21 3470.67 3860.85 3449.42H3055.88C2683.21 3449.42 2534.15 3300.35 2534.15 2331.41C2534.15 1556.26 2161.48 1064.34 1267.07 1064.34H597.961H410.139C152.122 1420.35 0 1858.12 0 2331.41ZM2441.63 4115.76C2473.3 4116.73 2499.75 4091.83 2500.71 4060.16C2501.68 4028.49 2476.79 4002.03 2445.12 4001.07C2413.46 4000.1 2387 4025 2386.04 4056.67C2385.08 4088.34 2409.97 4114.8 2441.63 4115.76ZM3511.68 4090.93C3543.35 4091.89 3569.8 4066.99 3570.76 4035.32C3571.73 4003.65 3546.84 3977.19 3515.17 3976.23C3483.51 3975.27 3457.06 4000.16 3456.09 4031.83C3455.13 4063.5 3480.02 4089.96 3511.68 4090.93ZM3961.04 4088.89C3992.7 4089.85 4019.16 4064.96 4020.12 4033.28C4021.08 4001.61 3996.2 3975.15 3964.53 3974.19C3932.86 3973.23 3906.41 3998.12 3905.45 4029.79C3904.49 4061.47 3929.37 4087.92 3961.04 4088.89ZM2868.62 4439.82C2926.78 4441.59 2975.37 4395.86 2977.14 4337.68C2978.91 4279.51 2933.19 4230.91 2875.03 4229.14C2816.87 4227.37 2768.28 4273.1 2766.51 4331.27C2764.74 4389.45 2810.46 4438.05 2868.62 4439.82Z" fill="url(#paint3_linear)"/>
<path fill-rule="evenodd" clip-rule="evenodd" d="M1288.1 293.915C1114.8 301.958 837.794 368.609 830.692 392.653C827.242 404.329 878.633 427.013 933.539 419.922C991.699 412.411 1069.26 402.395 1137.99 406.868C1214.59 411.855 1226.94 434.102 1171.69 450.49C1003.7 500.313 626.771 800.304 642.988 836.529C651.81 856.238 729.499 838.626 803.04 791.983L803.042 791.982C864.676 752.891 933.678 709.126 984.306 691.912C1064.68 664.583 1092.55 657.5 1118.72 650.849L1118.73 650.847L1118.73 650.845L1118.74 650.843C1125.02 649.247 1131.2 647.676 1137.99 645.856C1144.19 644.191 1150.08 642.605 1155.68 641.099C1216.17 624.809 1306.95 603.697 1342.36 635.857C1377.46 667.72 1325.91 733.473 1282.55 788.783C1249.63 830.777 1221.43 866.751 1239.45 877.299C1261.86 890.413 1385.51 818.467 1442.33 749.34C1459.19 728.825 1469.34 711.071 1477.69 696.466C1497.48 661.857 1507.16 644.929 1572.09 650.847C1663.27 659.157 1719.37 772.858 1719.37 831.67C1719.37 837.685 1719.23 843.535 1719.1 849.131L1719.1 849.137V849.14C1718.33 882.262 1717.77 906.448 1746.88 903.026C1788.38 898.147 1794.73 812.318 1787.63 764.831C1780.52 717.344 1777.42 661.85 1823.84 586.917C1834.79 569.244 1843.8 559.434 1853 549.407C1854.5 547.778 1856 546.142 1857.52 544.466C1877.89 521.944 1892.27 506.054 1922.73 491.147C1980.13 463.057 2070.5 472.723 2161.63 482.47L2161.63 482.47L2161.64 482.47C2193.69 485.899 2225.85 489.338 2256.69 491.147C2269.37 491.89 2281.98 492.71 2294.38 493.516C2382.73 499.259 2460.15 504.293 2469.74 475.772C2484.07 433.146 2349.46 411.664 2236.31 393.606C2169.95 383.014 2113.59 368.288 2093.73 361.788C2034.77 342.482 2006.54 319.004 2161.48 319.004C3012.7 319.004 3740.49 847.506 4034.6 1594.28C4049.95 1578.13 4097.2 1539.64 4163.41 1514.9C3841.29 725.922 3066.31 169.937 2161.48 169.937C1797.72 153.949 1716.32 105.643 1667.59 71.9352C1664.76 69.977 1662.06 68.1057 1659.43 66.3349C1649.52 59.6509 1638.15 49.9855 1626.51 40.0914C1598.27 16.0838 1568.44 -9.27015 1553.98 3.35796C1536.26 18.8352 1558.06 58.4287 1576 91.0015L1576.05 91.0776L1576.5 91.8995C1576.76 92.3762 1577.02 92.8513 1577.28 93.3248C1595.37 126.194 1588.25 149.946 1584.48 162.514L1584.48 162.516C1583.34 166.315 1582.5 169.093 1582.77 170.791C1542.47 282.627 1404.76 288.733 1301.35 293.319L1301.33 293.32C1296.85 293.518 1292.44 293.714 1288.1 293.915ZM1614.66 545.546C1679.13 545.546 1731.38 493.319 1731.38 428.893C1731.38 364.467 1679.13 312.24 1614.66 312.24C1550.2 312.24 1497.94 364.467 1497.94 428.893C1497.94 493.319 1550.2 545.546 1614.66 545.546Z" fill="url(#paint4_linear)"/>
<path d="M5772.64 2593.77C5772.64 2598.54 5769.06 2654.59 5761.9 2761.92H4352.32C4380.94 2862.09 4435.8 2939.61 4516.89 2994.47C4600.37 3046.94 4704.12 3073.17 4828.14 3073.17C4921.16 3073.17 5001.06 3060.06 5067.84 3033.82C5137.01 3007.58 5206.18 2964.65 5275.35 2905.03L5633.11 3277.1C5444.69 3486.98 5169.21 3591.93 4806.68 3591.93C4580.1 3591.93 4380.94 3549 4209.22 3463.13C4037.49 3377.27 3903.93 3258.02 3808.52 3105.37C3715.51 2952.73 3669 2779.81 3669 2586.62C3669 2395.81 3714.31 2225.28 3804.95 2075.02C3897.96 1922.37 4025.57 1803.12 4187.75 1717.26C4349.94 1631.39 4532.39 1588.46 4735.13 1588.46C4928.32 1588.46 5103.62 1629.01 5261.04 1710.1C5418.45 1788.81 5542.48 1904.49 5633.11 2057.13C5726.13 2207.39 5772.64 2386.27 5772.64 2593.77ZM4738.7 2071.44C4633.76 2071.44 4545.51 2101.25 4473.96 2160.88C4404.79 2220.51 4360.67 2301.6 4341.59 2404.16H5135.82C5116.74 2301.6 5071.42 2220.51 4999.87 2160.88C4930.7 2101.25 4843.65 2071.44 4738.7 2071.44Z" fill="url(#paint5_linear)"/>
<path d="M8125.28 1620.66V3559.73H7477.73V3352.23C7406.18 3430.94 7320.32 3490.56 7220.15 3531.11C7119.97 3571.66 7013.84 3591.93 6901.74 3591.93C6651.3 3591.93 6450.96 3517.99 6300.7 3370.12C6152.82 3222.24 6078.89 3000.43 6078.89 2704.68V1620.66H6758.63V2593.77C6758.63 2739.26 6786.06 2845.4 6840.92 2912.18C6895.77 2978.96 6975.68 3012.35 7080.62 3012.35C7187.95 3012.35 7275 2975.39 7341.79 2901.45C7410.95 2825.13 7445.54 2709.45 7445.54 2554.42V1620.66H8125.28Z" fill="url(#paint6_linear)"/>
<path d="M9210.67 1853.21C9279.84 1764.96 9369.28 1699.37 9478.99 1656.44C9591.09 1611.12 9718.69 1588.46 9861.8 1588.46V2200.24C9799.79 2193.08 9748.51 2189.5 9707.96 2189.5C9562.47 2189.5 9447.99 2228.86 9364.51 2307.56C9283.42 2386.27 9242.87 2506.72 9242.87 2668.9V3559.73H8563.12V1620.66H9210.67V1853.21Z" fill="url(#paint7_linear)"/>
<path d="M11691.7 3073.17H10632.7L10435.9 3559.73H9713.27L10818.8 1055.4H11516.4L12625.5 3559.73H11888.5L11691.7 3073.17ZM11484.2 2550.84L11162.2 1749.46L10840.2 2550.84H11484.2Z" fill="url(#paint8_linear)"/>
<path d="M12794.1 905.137H13473.8V3559.73H12794.1V905.137Z" fill="url(#paint9_linear)"/>
<path d="M15135.5 1588.46C15312 1588.46 15471.8 1629.01 15614.9 1710.1C15760.4 1791.19 15874.9 1908.06 15958.4 2060.71C16044.3 2210.97 16087.2 2386.27 16087.2 2586.62C16087.2 2786.96 16044.3 2963.46 15958.4 3116.11C15874.9 3268.75 15760.4 3386.81 15614.9 3470.29C15471.8 3551.38 15312 3591.93 15135.5 3591.93C14880.3 3591.93 14689.5 3516.8 14563.1 3366.54V3559.73H13915.6V905.137H14595.3V1788.81C14726.5 1655.24 14906.6 1588.46 15135.5 1588.46ZM14992.4 3051.71C15111.7 3051.71 15209.5 3011.16 15285.8 2930.07C15362.1 2846.59 15400.3 2732.11 15400.3 2586.62C15400.3 2443.51 15362.1 2331.41 15285.8 2250.32C15209.5 2169.23 15111.7 2128.68 14992.4 2128.68C14873.2 2128.68 14775.4 2169.23 14699.1 2250.32C14622.7 2331.41 14584.6 2443.51 14584.6 2586.62C14584.6 2732.11 14622.7 2846.59 14699.1 2930.07C14775.4 3011.16 14873.2 3051.71 14992.4 3051.71Z" fill="url(#paint10_linear)"/>
<path d="M18385.1 2593.77C18385.1 2598.54 18381.6 2654.59 18374.4 2761.92H16964.8C16993.4 2862.09 17048.3 2939.61 17129.4 2994.47C17212.9 3046.94 17316.6 3073.17 17440.6 3073.17C17533.7 3073.17 17613.6 3060.06 17680.3 3033.82C17749.5 3007.58 17818.7 2964.65 17887.8 2905.03L18245.6 3277.1C18057.2 3486.98 17781.7 3591.93 17419.2 3591.93C17192.6 3591.93 16993.4 3549 16821.7 3463.13C16650 3377.27 16516.4 3258.02 16421 3105.37C16328 2952.73 16281.5 2779.81 16281.5 2586.62C16281.5 2395.81 16326.8 2225.28 16417.4 2075.02C16510.5 1922.37 16638.1 1803.12 16800.3 1717.26C16962.4 1631.39 17144.9 1588.46 17347.6 1588.46C17540.8 1588.46 17716.1 1629.01 17873.5 1710.1C18031 1788.81 18155 1904.49 18245.6 2057.13C18338.6 2207.39 18385.1 2386.27 18385.1 2593.77ZM17351.2 2071.44C17246.3 2071.44 17158 2101.25 17086.5 2160.88C17017.3 2220.51 16973.2 2301.6 16954.1 2404.16H17748.3C17729.2 2301.6 17683.9 2220.51 17612.4 2160.88C17543.2 2101.25 17456.1 2071.44 17351.2 2071.44Z" fill="url(#paint11_linear)"/>
<path d="M19346.1 1853.21C19415.3 1764.96 19504.7 1699.37 19614.4 1656.44C19726.5 1611.12 19854.1 1588.46 19997.2 1588.46V2200.24C19935.2 2193.08 19883.9 2189.5 19843.4 2189.5C19697.9 2189.5 19583.4 2228.86 19499.9 2307.56C19418.8 2386.27 19378.3 2506.72 19378.3 2668.9V3559.73H18698.5V1620.66H19346.1V1853.21Z" fill="url(#paint12_linear)"/>
<path d="M21675.1 3481.02C21617.9 3516.8 21547.5 3544.23 21464.1 3563.31C21383 3582.39 21295.9 3591.93 21202.9 3591.93C20950.1 3591.93 20755.7 3529.92 20619.8 3405.89C20483.8 3281.87 20415.8 3097.02 20415.8 2851.36V2200.24H20133.2V1692.21H20415.8V1187.77H21095.6V1692.21H21539.2V2200.24H21095.6V2844.21C21095.6 2913.37 21113.5 2968.23 21149.2 3008.78C21187.4 3046.94 21237.5 3066.02 21299.5 3066.02C21378.2 3066.02 21447.4 3045.75 21507 3005.2L21675.1 3481.02Z" fill="url(#paint13_linear)"/>
<path d="M22763.7 1588.46C23085.7 1588.46 23331.3 1662.4 23500.7 1810.27C23670 1955.76 23754.7 2179.96 23754.7 2482.87V3559.73H23121.5V3309.3C23023.7 3497.72 22832.9 3591.93 22549 3591.93C22398.8 3591.93 22268.8 3565.69 22159.1 3513.22C22049.4 3460.75 21965.9 3390.39 21908.6 3302.14C21853.8 3211.51 21826.4 3108.95 21826.4 2994.47C21826.4 2810.82 21896.7 2668.9 22037.4 2568.73C22178.2 2466.17 22395.2 2414.89 22688.6 2414.89H23074.9C23063 2209.78 22925.9 2107.22 22663.5 2107.22C22570.5 2107.22 22476.3 2122.72 22380.9 2153.73C22285.5 2182.35 22204.4 2222.89 22137.6 2275.36L21908.6 1813.85C22016 1742.3 22146 1687.44 22298.6 1649.28C22453.6 1608.74 22608.7 1588.46 22763.7 1588.46ZM22738.7 3162.61C22817.4 3162.61 22886.5 3143.53 22946.2 3105.37C23005.8 3067.21 23048.7 3011.16 23074.9 2937.22V2769.08H22781.6C22583.6 2769.08 22484.6 2834.67 22484.6 2965.85C22484.6 3025.47 22507.3 3073.17 22552.6 3108.95C22597.9 3144.73 22659.9 3162.61 22738.7 3162.61Z" fill="url(#paint14_linear)"/>
<path d="M24749 1617.08H23979.8V1055.4H26223V1617.08H25457.4V3559.73H24749V1617.08Z" fill="url(#paint15_linear)"/>
<path d="M28241.1 2593.77C28241.1 2598.54 28237.5 2654.59 28230.3 2761.92H26820.7C26849.4 2862.09 26904.2 2939.61 26985.3 2994.47C27068.8 3046.94 27172.5 3073.17 27296.6 3073.17C27389.6 3073.17 27469.5 3060.06 27536.3 3033.82C27605.4 3007.58 27674.6 2964.65 27743.8 2905.03L28101.5 3277.1C27913.1 3486.98 27637.6 3591.93 27275.1 3591.93C27048.5 3591.93 26849.4 3549 26677.6 3463.13C26505.9 3377.27 26372.3 3258.02 26276.9 3105.37C26183.9 2952.73 26137.4 2779.81 26137.4 2586.62C26137.4 2395.81 26182.7 2225.28 26273.4 2075.02C26366.4 1922.37 26494 1803.12 26656.2 1717.26C26818.4 1631.39 27000.8 1588.46 27203.5 1588.46C27396.7 1588.46 27572 1629.01 27729.5 1710.1C27886.9 1788.81 28010.9 1904.49 28101.5 2057.13C28194.5 2207.39 28241.1 2386.27 28241.1 2593.77ZM27207.1 2071.44C27102.2 2071.44 27013.9 2101.25 26942.4 2160.88C26873.2 2220.51 26829.1 2301.6 26810 2404.16H27604.2C27585.2 2301.6 27539.8 2220.51 27468.3 2160.88C27399.1 2101.25 27312.1 2071.44 27207.1 2071.44Z" fill="url(#paint16_linear)"/>
<path d="M29545.5 3591.93C29330.8 3591.93 29138.8 3549 28969.5 3463.13C28800.1 3377.27 28667.8 3258.02 28572.3 3105.37C28479.3 2952.73 28432.8 2779.81 28432.8 2586.62C28432.8 2393.43 28479.3 2221.7 28572.3 2071.44C28667.8 1918.8 28800.1 1800.73 28969.5 1717.26C29138.8 1631.39 29330.8 1588.46 29545.5 1588.46C29764.9 1588.46 29954.5 1636.16 30114.3 1731.57C30274.1 1824.59 30387.4 1954.57 30454.2 2121.53L29928.3 2389.85C29840 2215.74 29711.2 2128.68 29541.9 2128.68C29420.2 2128.68 29318.9 2169.23 29237.8 2250.32C29159.1 2331.41 29119.7 2443.51 29119.7 2586.62C29119.7 2732.11 29159.1 2846.59 29237.8 2930.07C29318.9 3011.16 29420.2 3051.71 29541.9 3051.71C29711.2 3051.71 29840 2964.65 29928.3 2790.54L30454.2 3058.86C30387.4 3225.82 30274.1 3357 30114.3 3452.4C29954.5 3545.42 29764.9 3591.93 29545.5 3591.93Z" fill="url(#paint17_linear)"/>
<path d="M31966 1588.46C32206.9 1588.46 32400.1 1660.01 32545.6 1803.12C32693.5 1946.22 32767.4 2162.07 32767.4 2450.67V3559.73H32087.7V2561.57C32087.7 2296.83 31981.5 2164.46 31769.3 2164.46C31652.4 2164.46 31558.2 2202.62 31486.6 2278.94C31417.5 2355.27 31382.9 2469.75 31382.9 2622.39V3559.73H30703.1V905.137H31382.9V1799.54C31456.8 1730.37 31543.9 1677.9 31644 1642.13C31744.2 1606.35 31851.5 1588.46 31966 1588.46Z" fill="url(#paint18_linear)"/>
<defs>
<linearGradient id="paint0_linear" x1="0" y1="0" x2="32767.3" y2="4004.7" gradientUnits="userSpaceOnUse">
<stop stop-color="#7967E1"/>
<stop offset="1" stop-color="#1B9FD6"/>
</linearGradient>
<linearGradient id="paint1_linear" x1="0" y1="0" x2="32767.3" y2="4004.7" gradientUnits="userSpaceOnUse">
<stop stop-color="#7967E1"/>
<stop offset="1" stop-color="#1B9FD6"/>
</linearGradient>
<linearGradient id="paint2_linear" x1="0" y1="0" x2="32767.3" y2="4004.7" gradientUnits="userSpaceOnUse">
<stop stop-color="#7967E1"/>
<stop offset="1" stop-color="#1B9FD6"/>
</linearGradient>
<linearGradient id="paint3_linear" x1="0" y1="0" x2="32767.3" y2="4004.7" gradientUnits="userSpaceOnUse">
<stop stop-color="#7967E1"/>
<stop offset="1" stop-color="#1B9FD6"/>
</linearGradient>
<linearGradient id="paint4_linear" x1="0" y1="0" x2="32767.3" y2="4004.7" gradientUnits="userSpaceOnUse">
<stop stop-color="#7967E1"/>
<stop offset="1" stop-color="#1B9FD6"/>
</linearGradient>
<linearGradient id="paint5_linear" x1="0" y1="0" x2="32767.3" y2="4004.7" gradientUnits="userSpaceOnUse">
<stop stop-color="#7967E1"/>
<stop offset="1" stop-color="#1B9FD6"/>
</linearGradient>
<linearGradient id="paint6_linear" x1="0" y1="0" x2="32767.3" y2="4004.7" gradientUnits="userSpaceOnUse">
<stop stop-color="#7967E1"/>
<stop offset="1" stop-color="#1B9FD6"/>
</linearGradient>
<linearGradient id="paint7_linear" x1="0" y1="0" x2="32767.3" y2="4004.7" gradientUnits="userSpaceOnUse">
<stop stop-color="#7967E1"/>
<stop offset="1" stop-color="#1B9FD6"/>
</linearGradient>
<linearGradient id="paint8_linear" x1="0" y1="0" x2="32767.3" y2="4004.7" gradientUnits="userSpaceOnUse">
<stop stop-color="#7967E1"/>
<stop offset="1" stop-color="#1B9FD6"/>
</linearGradient>
<linearGradient id="paint9_linear" x1="0" y1="0" x2="32767.3" y2="4004.7" gradientUnits="userSpaceOnUse">
<stop stop-color="#7967E1"/>
<stop offset="1" stop-color="#1B9FD6"/>
</linearGradient>
<linearGradient id="paint10_linear" x1="0" y1="0" x2="32767.3" y2="4004.7" gradientUnits="userSpaceOnUse">
<stop stop-color="#7967E1"/>
<stop offset="1" stop-color="#1B9FD6"/>
</linearGradient>
<linearGradient id="paint11_linear" x1="0" y1="0" x2="32767.3" y2="4004.7" gradientUnits="userSpaceOnUse">
<stop stop-color="#7967E1"/>
<stop offset="1" stop-color="#1B9FD6"/>
</linearGradient>
<linearGradient id="paint12_linear" x1="0" y1="0" x2="32767.3" y2="4004.7" gradientUnits="userSpaceOnUse">
<stop stop-color="#7967E1"/>
<stop offset="1" stop-color="#1B9FD6"/>
</linearGradient>
<linearGradient id="paint13_linear" x1="0" y1="0" x2="32767.3" y2="4004.7" gradientUnits="userSpaceOnUse">
<stop stop-color="#7967E1"/>
<stop offset="1" stop-color="#1B9FD6"/>
</linearGradient>
<linearGradient id="paint14_linear" x1="0" y1="0" x2="32767.3" y2="4004.7" gradientUnits="userSpaceOnUse">
<stop stop-color="#7967E1"/>
<stop offset="1" stop-color="#1B9FD6"/>
</linearGradient>
<linearGradient id="paint15_linear" x1="0" y1="0" x2="32767.3" y2="4004.7" gradientUnits="userSpaceOnUse">
<stop stop-color="#7967E1"/>
<stop offset="1" stop-color="#1B9FD6"/>
</linearGradient>
<linearGradient id="paint16_linear" x1="0" y1="0" x2="32767.3" y2="4004.7" gradientUnits="userSpaceOnUse">
<stop stop-color="#7967E1"/>
<stop offset="1" stop-color="#1B9FD6"/>
</linearGradient>
<linearGradient id="paint17_linear" x1="0" y1="0" x2="32767.3" y2="4004.7" gradientUnits="userSpaceOnUse">
<stop stop-color="#7967E1"/>
<stop offset="1" stop-color="#1B9FD6"/>
</linearGradient>
<linearGradient id="paint18_linear" x1="0" y1="0" x2="32767.3" y2="4004.7" gradientUnits="userSpaceOnUse">
<stop stop-color="#7967E1"/>
<stop offset="1" stop-color="#1B9FD6"/>
</linearGradient>
</defs>
</svg>
