<?xml version="1.0" encoding="UTF-8"?>
<svg width="28px" height="32px" viewBox="0 0 28 32" version="1.1" xmlns="http://www.w3.org/2000/svg" xmlns:xlink="http://www.w3.org/1999/xlink">
    <title>right-arrow</title>
    <g id="Page-1" stroke="none" stroke-width="1" fill="none" fill-rule="evenodd">
        <g id="right-arrow" transform="translate(0.000219, 0.000000)" fill="#FFFFFF" fill-rule="nonzero">
            <path d="M27.7068157,16.707 L12.7068157,31.707 C12.5193229,31.8945494 12.2650105,32 11.9998157,32 L0.999815673,32 C0.595419775,32 0.230881623,31.7562725 0.0761376946,31.3826546 C-0.0786062333,31.0090366 0.00690775714,30.5789943 0.292815673,30.293 L14.5857157,16 L0.292815673,1.707 C0.00690775714,1.42100575 -0.0786062333,0.990963384 0.0761376946,0.617345442 C0.230881623,0.2437275 0.595419775,0 0.999815673,0 L11.9998157,0 C12.2650105,0 12.5193229,0.105450625 12.7068157,0.293 L27.7068157,15.293 C27.8944338,15.4804496 27.9998508,15.734787 27.9998508,16 C27.9998508,16.265213 27.8944338,16.5195504 27.7068157,16.707 Z" id="Path"></path>
        </g>
    </g>
</svg>