<svg id="Layer_1" data-name="Layer 1" xmlns="http://www.w3.org/2000/svg" viewBox="0 0 1000 1000"><defs><style>.cls-1,.cls-3,.cls-5,.cls-7,.cls-9{fill:none;stroke-miterlimit:10;stroke-width:20px}.cls-1{stroke:#fcee21}.cls-2{fill:#fcee21}.cls-3{stroke:#7ac943}.cls-4{fill:#7ac943}.cls-5{stroke:#ff1d25}.cls-6{fill:#ff1d25}.cls-7{stroke:#3fa9f5}.cls-8{fill:#3fa9f5}.cls-9{stroke:#ff931e}.cls-10{fill:#ff931e}.cls-12{fill:#ff7bac}</style></defs><path class="cls-1" d="M93.5 468.5l63 63h125l125 125"/><circle class="cls-2" cx="93.5" cy="468.5" r="18.8" transform="rotate(-45 93.496 468.493)"/><circle class="cls-2" cx="406.5" cy="656.5" r="18.8" transform="rotate(-45 406.498 656.493)"/><path class="cls-3" d="M781.5 656.5l-63 62h-62"/><circle class="cls-4" cx="781.5" cy="656.5" r="18.8" transform="rotate(-44.54 781.537 656.506)"/><circle class="cls-4" cx="656.5" cy="718.5" r="18.8"/><path class="cls-5" d="M594.5 906.5v-125l-125-125v-63"/><circle class="cls-6" cx="594.5" cy="906.5" r="18.8"/><circle class="cls-6" cx="469.5" cy="593.5" r="18.8"/><path class="cls-7" d="M593.5 531.5l63 62h125l125-125"/><circle class="cls-8" cx="593.5" cy="531.5" r="18.8" transform="rotate(-45.46 593.468 531.49)"/><circle class="cls-8" cx="906.5" cy="468.5" r="18.8" transform="rotate(-45 906.498 468.496)"/><path class="cls-7" d="M93.5 343.5l188-188h187"/><circle class="cls-8" cx="93.5" cy="343.5" r="18.8" transform="rotate(-45 93.494 343.504)"/><circle class="cls-8" cx="468.5" cy="155.5" r="18.8"/><path class="cls-3" d="M468.5 93.5h188l125 125"/><circle class="cls-4" cx="468.5" cy="93.5" r="18.8"/><circle class="cls-4" cx="781.5" cy="218.5" r="18.8" transform="rotate(-45 781.497 218.503)"/><path class="cls-9" d="M906.5 405.5l-125-125h-125l-125-125"/><circle class="cls-10" cx="906.5" cy="405.5" r="18.8" transform="rotate(-45 906.501 405.495)"/><circle class="cls-10" cx="531.5" cy="155.5" r="18.8" transform="rotate(-45 531.499 155.496)"/><path class="cls-1" d="M781.5 405.5h-125l-125-125h-125"/><circle class="cls-2" cx="781.5" cy="405.5" r="18.8"/><circle class="cls-2" cx="406.5" cy="280.5" r="18.8"/><path class="cls-3" d="M343.5 218.5l-125 125v125"/><circle class="cls-4" cx="343.5" cy="218.5" r="18.8" transform="rotate(-45 343.504 218.496)"/><circle class="cls-4" cx="218.5" cy="468.5" r="18.8"/><path class="cls-5" d="M281.5 468.5l125-125h62l125 125"/><circle class="cls-6" cx="281.5" cy="468.5" r="18.8" transform="rotate(-45 281.499 468.5)"/><circle class="cls-6" cx="593.5" cy="468.5" r="18.8" transform="rotate(-45 593.5 468.504)"/><path stroke="#ff7bac" fill="none" stroke-miterlimit="10" stroke-width="20" d="M656.5 530.5h62l63-62"/><circle class="cls-12" cx="656.5" cy="530.5" r="18.8"/><circle class="cls-12" cx="781.5" cy="468.5" r="18.8" transform="rotate(-44.54 781.536 468.512)"/><path class="cls-9" d="M594.5 655.5l-63-62v-63l-62-62h-63l-62 62"/><circle class="cls-10" cx="594.5" cy="655.5" r="18.8" transform="rotate(-45.46 594.472 655.486)"/><circle class="cls-10" cx="344.5" cy="530.5" r="18.8" transform="rotate(-45 344.501 530.503)"/></svg>