<?xml version="1.0" standalone="no"?>
<!DOCTYPE svg PUBLIC "-//W3C//DTD SVG 20010904//EN"
 "http://www.w3.org/TR/2001/REC-SVG-20010904/DTD/svg10.dtd">
<svg version="1.0" xmlns="http://www.w3.org/2000/svg"
 width="6315.000000pt" height="6315.000000pt" viewBox="0 0 6315.000000 6315.000000"
 preserveAspectRatio="xMidYMid meet">
<metadata>
Created by potrace 1.14, written by Peter Selinger 2001-2017
</metadata>
<g transform="translate(0.000000,6315.000000) scale(0.100000,-0.100000)"
fill="#000000" stroke="none">
<path d="M23457 63128 c-149 -76 -163 -293 -38 -607 36 -91 168 -370 180 -381
3 -3 19 -30 35 -60 16 -30 41 -77 56 -105 149 -273 190 -402 195 -620 4 -133
-6 -206 -47 -350 -17 -60 -32 -121 -33 -135 -3 -34 -82 -215 -140 -320 -175
-315 -435 -574 -775 -772 -287 -168 -652 -299 -1075 -388 -55 -11 -116 -23
-135 -26 -19 -3 -42 -7 -50 -9 -8 -2 -37 -7 -65 -10 -27 -4 -57 -8 -65 -10 -8
-2 -37 -7 -65 -11 -27 -3 -57 -7 -65 -9 -8 -2 -46 -6 -85 -10 -38 -4 -78 -9
-88 -11 -10 -2 -48 -6 -85 -9 -37 -4 -83 -8 -102 -10 -19 -2 -71 -6 -115 -10
-44 -3 -100 -8 -125 -10 -25 -2 -92 -7 -150 -10 -58 -3 -136 -8 -175 -10 -74
-5 -245 -13 -410 -20 -178 -7 -339 -16 -390 -20 -27 -3 -88 -7 -135 -10 -150
-10 -184 -13 -235 -19 -28 -3 -79 -8 -115 -11 -36 -3 -78 -7 -95 -9 -16 -2
-64 -7 -105 -10 -41 -4 -86 -9 -100 -11 -14 -2 -50 -7 -80 -10 -88 -10 -120
-14 -200 -24 -41 -6 -99 -13 -129 -16 -30 -4 -61 -8 -70 -10 -9 -1 -41 -6 -71
-10 -67 -8 -107 -14 -140 -20 -14 -2 -45 -7 -70 -10 -125 -16 -640 -99 -775
-125 -55 -11 -116 -21 -135 -24 -19 -3 -96 -17 -170 -31 -74 -14 -160 -30
-190 -36 -30 -5 -75 -14 -100 -19 -25 -5 -56 -12 -70 -14 -44 -7 -234 -47
-270 -56 -19 -5 -48 -11 -65 -13 -25 -4 -179 -37 -244 -52 -25 -6 -201 -46
-246 -56 -189 -41 -677 -164 -925 -233 -703 -195 -1145 -372 -1190 -477 -50
-117 313 -299 715 -360 39 -5 93 -14 120 -19 53 -9 476 -6 535 4 19 3 55 8 80
11 25 3 74 10 110 15 36 5 92 12 125 15 33 3 67 8 75 10 8 2 44 7 80 10 36 3
92 10 125 15 33 5 93 12 133 15 41 4 81 8 90 10 9 1 51 6 92 10 41 4 86 9 100
10 14 2 57 6 95 9 172 16 224 21 370 31 50 4 110 8 135 10 320 23 960 24 1224
1 123 -11 226 -24 301 -36 292 -50 464 -122 511 -213 13 -25 14 -37 5 -66 -30
-97 -148 -165 -468 -270 -223 -73 -483 -174 -639 -246 -53 -25 -98 -45 -100
-45 -25 0 -754 -384 -961 -506 -18 -10 -73 -43 -123 -72 -137 -79 -379 -228
-635 -390 -193 -123 -274 -175 -435 -282 -148 -98 -392 -265 -625 -428 -82
-58 -163 -115 -180 -126 -16 -12 -32 -23 -35 -26 -3 -3 -61 -45 -130 -94 -111
-79 -654 -482 -684 -507 -6 -5 -49 -39 -96 -75 -47 -36 -95 -73 -107 -82 -12
-9 -45 -35 -74 -57 -215 -166 -848 -683 -974 -796 -16 -15 -75 -66 -130 -114
-243 -213 -378 -339 -600 -560 -204 -203 -253 -256 -346 -370 -134 -164 -194
-266 -205 -348 -5 -37 -2 -47 21 -75 25 -30 69 -55 120 -69 44 -12 255 -11
335 2 219 35 515 118 725 205 17 7 39 16 50 21 243 98 586 270 780 390 17 10
46 28 65 39 19 11 79 49 132 83 116 74 465 294 512 322 18 11 140 86 272 166
628 383 1144 652 1484 774 135 49 662 226 685 231 6 1 37 11 70 22 54 18 211
68 340 108 28 9 57 18 65 20 8 2 76 21 150 44 122 37 330 93 740 200 80 21
259 68 398 104 138 37 260 69 270 71 9 2 76 17 147 34 72 17 150 35 175 40 25
5 77 16 115 25 68 14 214 40 285 51 19 3 46 7 60 10 14 2 49 7 79 10 30 4 62
8 71 10 15 3 59 7 210 21 75 7 389 7 436 0 22 -3 57 -8 79 -11 278 -33 503
-150 600 -310 85 -142 92 -324 20 -540 -45 -136 -123 -296 -228 -470 -39 -64
-203 -311 -247 -370 -28 -38 -63 -87 -78 -108 -15 -21 -34 -46 -42 -56 -8 -10
-26 -33 -40 -51 -49 -65 -352 -455 -368 -475 -9 -11 -51 -65 -92 -120 -41 -55
-78 -102 -81 -105 -3 -3 -37 -48 -74 -100 -310 -430 -380 -644 -240 -735 34
-22 49 -26 108 -24 251 8 745 236 1287 593 111 73 372 255 380 266 3 3 21 17
40 30 70 49 298 236 424 349 202 180 406 393 539 562 89 113 273 379 286 414
2 5 7 12 10 15 3 3 13 19 22 35 56 104 223 383 267 445 183 266 390 360 792
361 85 1 178 -1 205 -4 28 -3 84 -9 125 -13 41 -3 84 -8 95 -10 11 -2 34 -7
50 -10 17 -2 48 -9 70 -15 507 -128 976 -515 1323 -1092 65 -108 212 -396 212
-415 0 -5 8 -26 19 -48 54 -114 146 -435 172 -609 8 -52 13 -217 14 -470 1
-214 5 -403 9 -420 24 -109 32 -135 58 -176 55 -90 152 -128 292 -115 317 29
527 419 583 1081 14 165 6 600 -12 695 -2 13 -7 46 -11 74 -4 28 -7 58 -9 66
-2 15 -14 108 -21 165 -27 217 -26 649 2 825 50 320 150 637 292 930 55 113
77 156 167 315 78 139 267 401 361 501 28 29 161 174 255 278 260 288 473 452
771 596 171 82 413 159 583 184 22 4 56 9 75 12 19 4 42 8 50 9 9 2 43 6 75
10 33 4 70 8 83 10 164 26 849 26 1177 0 28 -2 93 -7 145 -11 52 -4 109 -8
125 -9 17 -2 66 -6 110 -9 44 -4 94 -9 110 -11 17 -2 65 -7 107 -10 43 -4 92
-8 110 -10 43 -6 111 -13 173 -19 51 -5 110 -12 200 -21 28 -3 68 -7 90 -10
22 -2 71 -7 108 -10 37 -4 76 -8 85 -10 9 -1 53 -6 97 -10 44 -4 91 -8 105
-10 49 -7 144 -16 310 -30 30 -3 80 -7 110 -10 30 -3 73 -7 95 -10 22 -2 81
-6 130 -10 50 -3 117 -8 150 -10 33 -2 105 -7 160 -10 55 -3 127 -8 160 -10
33 -3 102 -7 154 -9 52 -3 124 -8 160 -11 36 -3 109 -7 161 -10 52 -3 124 -8
160 -10 252 -19 569 -30 890 -30 301 0 479 7 540 20 14 3 45 8 70 11 149 18
308 75 387 141 24 19 55 55 70 81 38 64 39 164 4 233 -80 158 -347 310 -771
438 -58 18 -118 36 -135 41 -36 11 -369 97 -405 104 -14 3 -113 23 -220 46
-177 37 -356 72 -435 85 -16 3 -52 10 -80 15 -27 5 -63 12 -80 15 -16 3 -82
14 -145 25 -63 12 -131 23 -150 26 -19 3 -42 7 -50 9 -8 2 -35 7 -60 10 -25 4
-139 22 -255 41 -115 19 -232 37 -260 40 -27 4 -53 8 -56 10 -6 3 -89 17 -174
29 -16 2 -91 16 -165 30 -74 14 -148 28 -165 30 -16 3 -41 8 -55 11 -14 3 -36
8 -50 10 -279 49 -949 209 -1225 292 -463 141 -725 279 -725 384 0 59 138 122
335 152 22 4 67 11 100 16 33 5 98 12 145 15 47 4 103 8 125 10 293 27 1421
27 2015 0 235 -11 443 -22 550 -30 36 -2 108 -7 160 -10 52 -3 118 -8 145 -10
28 -3 82 -7 120 -10 39 -3 93 -7 120 -10 28 -2 82 -7 120 -10 39 -3 88 -8 110
-10 22 -2 72 -7 110 -10 39 -3 86 -8 105 -10 19 -3 60 -7 90 -10 80 -8 151
-15 180 -20 14 -2 57 -6 95 -10 39 -3 81 -8 95 -10 24 -4 64 -9 165 -20 28 -3
77 -10 110 -15 33 -5 85 -12 115 -15 30 -3 82 -10 115 -15 33 -5 83 -12 110
-15 28 -4 61 -8 75 -10 14 -3 43 -7 65 -10 22 -3 51 -8 65 -10 14 -2 45 -7 70
-10 54 -7 86 -12 160 -25 30 -5 73 -12 95 -15 22 -4 51 -8 65 -10 14 -3 43 -7
65 -10 22 -4 47 -8 55 -10 8 -2 35 -7 60 -10 25 -3 52 -8 60 -10 8 -2 31 -7
50 -10 131 -21 550 -100 790 -150 170 -35 262 -55 447 -96 123 -28 231 -52
240 -54 45 -9 330 -79 438 -106 66 -17 127 -33 135 -35 17 -4 74 -19 240 -62
412 -108 1023 -291 1490 -445 299 -99 750 -255 815 -282 17 -6 55 -21 85 -32
182 -68 388 -145 405 -153 11 -5 108 -43 215 -86 256 -101 654 -267 895 -374
28 -12 68 -30 90 -40 509 -227 1135 -529 1560 -755 50 -26 133 -70 185 -98
208 -110 398 -215 660 -365 102 -58 194 -111 205 -117 11 -5 31 -18 45 -26 14
-9 111 -67 215 -129 257 -153 499 -303 503 -312 2 -5 8 -8 13 -8 14 0 268
-164 659 -426 304 -203 405 -272 430 -291 8 -7 71 -51 139 -99 69 -48 129 -91
135 -96 6 -5 81 -59 166 -120 85 -62 157 -114 160 -117 3 -4 28 -22 55 -40 28
-19 52 -37 55 -40 3 -4 50 -40 105 -81 55 -41 107 -80 115 -87 8 -7 87 -68
176 -136 88 -68 169 -131 180 -140 10 -9 91 -73 179 -144 88 -70 162 -130 165
-133 3 -3 41 -35 85 -70 82 -66 119 -97 139 -115 6 -6 38 -33 71 -60 73 -61
403 -344 426 -365 19 -17 68 -61 163 -145 87 -76 73 -64 326 -295 277 -253
464 -434 825 -795 324 -325 428 -432 635 -655 63 -68 124 -133 135 -145 32
-34 273 -301 361 -400 80 -90 91 -103 179 -205 26 -30 59 -68 74 -85 23 -26
122 -143 169 -200 182 -217 258 -310 427 -521 110 -138 213 -269 230 -290 16
-21 68 -89 115 -149 47 -61 105 -137 130 -170 25 -33 50 -66 57 -75 240 -311
812 -1130 1048 -1503 6 -8 71 -112 146 -229 170 -265 316 -505 494 -808 76
-129 151 -256 166 -283 16 -26 29 -49 29 -52 0 -2 15 -30 34 -62 46 -80 72
-127 201 -363 739 -1356 1381 -2829 1870 -4295 99 -296 182 -550 195 -600 5
-16 18 -61 30 -100 28 -92 79 -262 90 -300 5 -16 18 -61 29 -100 35 -125 152
-549 156 -568 2 -10 7 -27 10 -37 3 -10 8 -27 10 -37 2 -10 16 -63 31 -118 14
-55 27 -107 29 -115 2 -8 17 -69 33 -135 26 -100 94 -391 107 -452 2 -10 18
-81 35 -158 35 -154 38 -166 46 -210 3 -16 14 -70 25 -120 19 -84 33 -151 44
-218 3 -15 12 -59 20 -97 8 -38 17 -84 21 -102 7 -41 32 -174 39 -211 2 -15 9
-53 15 -85 6 -31 12 -68 15 -82 3 -14 8 -41 11 -60 3 -19 11 -71 19 -115 8
-44 17 -96 20 -115 3 -19 7 -46 10 -60 3 -14 7 -38 9 -55 10 -64 19 -121 21
-140 2 -11 8 -49 14 -85 15 -95 20 -133 37 -255 8 -60 17 -123 20 -140 8 -50
12 -78 19 -140 4 -32 8 -66 10 -75 1 -8 6 -42 9 -75 4 -33 9 -71 11 -85 3 -23
18 -148 31 -260 3 -25 7 -56 9 -70 2 -14 6 -61 10 -105 4 -44 8 -82 10 -85 2
-3 6 -45 9 -95 4 -49 8 -101 10 -115 3 -14 7 -61 11 -105 3 -44 8 -93 10 -110
2 -16 7 -68 10 -115 3 -46 8 -100 10 -120 2 -19 6 -80 10 -135 3 -55 8 -122
10 -150 6 -63 15 -209 20 -300 35 -671 39 -850 39 -1585 0 -670 -5 -885 -29
-1370 -3 -63 -8 -149 -10 -190 -3 -41 -7 -113 -10 -160 -3 -47 -7 -114 -10
-150 -3 -36 -7 -96 -10 -135 -3 -38 -7 -98 -10 -133 -3 -34 -7 -90 -10 -125
-12 -153 -19 -233 -29 -327 -3 -25 -8 -79 -11 -120 -3 -41 -8 -86 -10 -100 -3
-14 -7 -47 -10 -75 -3 -27 -7 -70 -10 -95 -3 -25 -7 -70 -10 -100 -3 -30 -7
-64 -9 -75 -2 -11 -7 -51 -11 -88 -3 -37 -8 -76 -10 -85 -1 -9 -6 -48 -11 -87
-4 -38 -8 -72 -9 -75 -1 -3 -5 -34 -9 -70 -5 -36 -10 -74 -12 -85 -2 -11 -6
-44 -10 -73 -3 -29 -7 -62 -9 -73 -2 -11 -11 -70 -20 -132 -8 -62 -17 -121
-19 -132 -2 -11 -7 -42 -10 -68 -4 -27 -9 -59 -12 -70 -2 -12 -7 -40 -9 -62
-3 -22 -10 -62 -15 -90 -5 -27 -12 -68 -15 -90 -3 -22 -8 -56 -11 -75 -4 -19
-8 -44 -10 -55 -2 -11 -6 -31 -8 -45 -3 -14 -8 -41 -10 -60 -3 -19 -8 -45 -10
-56 -2 -12 -7 -37 -10 -55 -12 -70 -17 -95 -26 -139 -5 -25 -14 -73 -20 -107
-11 -63 -15 -87 -25 -133 -3 -14 -12 -61 -21 -105 -8 -44 -18 -91 -20 -105 -3
-14 -21 -99 -40 -190 -20 -91 -38 -178 -41 -195 -2 -16 -16 -77 -30 -135 -13
-58 -27 -116 -29 -130 -3 -14 -11 -50 -19 -80 -8 -30 -16 -66 -19 -80 -2 -14
-25 -110 -51 -215 -25 -104 -48 -197 -50 -205 -7 -31 -37 -148 -61 -235 -85
-311 -138 -506 -149 -550 -7 -27 -21 -74 -30 -104 -9 -30 -19 -62 -21 -70 -38
-157 -281 -916 -428 -1336 -82 -237 -214 -601 -236 -650 -4 -11 -34 -87 -65
-170 -31 -82 -63 -163 -70 -180 -8 -16 -35 -84 -61 -150 -115 -293 -378 -906
-517 -1206 -147 -316 -198 -421 -338 -704 -204 -409 -391 -770 -510 -982 -10
-18 -35 -63 -55 -100 -21 -37 -85 -151 -142 -253 -58 -102 -110 -194 -116
-205 -6 -11 -19 -31 -27 -45 -9 -14 -47 -78 -85 -143 -38 -65 -76 -128 -84
-142 -8 -13 -30 -50 -49 -82 -54 -93 -318 -518 -396 -638 -40 -60 -121 -185
-181 -278 l-109 -167 -5550 3 c-3052 2 -5572 6 -5600 9 -27 4 -106 9 -175 13
-69 3 -145 8 -170 10 -25 2 -83 7 -130 11 -47 3 -92 7 -100 9 -8 2 -53 6 -100
10 -47 3 -92 8 -100 10 -8 2 -40 7 -70 10 -30 3 -82 10 -115 15 -33 5 -80 12
-105 15 -37 5 -347 62 -440 81 -216 43 -667 180 -855 258 -16 7 -66 28 -110
46 -79 32 -330 155 -412 202 -348 196 -618 402 -903 688 -147 147 -217 224
-326 360 -81 101 -216 285 -249 339 -5 9 -26 41 -46 71 -131 200 -253 417
-377 670 -86 177 -262 580 -262 600 0 6 -5 18 -10 28 -27 46 -199 550 -270
792 -12 41 -30 102 -40 135 -35 114 -157 589 -184 715 -3 14 -12 55 -20 91 -8
36 -17 78 -20 93 -3 14 -7 34 -10 44 -3 9 -7 28 -10 42 -2 14 -20 102 -40 195
-30 145 -72 362 -91 470 -18 103 -47 274 -50 297 -2 15 -8 53 -14 85 -6 32
-13 81 -16 108 -4 28 -8 57 -10 65 -2 8 -7 35 -10 60 -3 25 -8 52 -10 60 -2 8
-7 41 -10 73 -4 32 -8 68 -11 80 -2 12 -7 45 -10 72 -5 47 -8 72 -18 120 -2
11 -7 47 -10 80 -4 33 -9 71 -11 85 -2 14 -6 48 -9 75 -4 28 -8 61 -11 75 -2
14 -7 50 -10 81 -3 31 -7 65 -9 76 -2 10 -7 50 -10 88 -4 39 -8 81 -11 95 -2
14 -7 52 -10 84 -3 33 -8 73 -10 90 -4 30 -9 79 -20 201 -4 33 -8 76 -10 95
-2 19 -7 62 -10 95 -3 33 -7 78 -10 100 -3 22 -7 72 -10 110 -3 39 -8 90 -10
115 -2 25 -7 74 -10 110 -3 36 -7 85 -10 110 -2 25 -7 79 -10 120 -3 41 -8 98
-10 125 -3 28 -7 91 -10 140 -3 50 -7 110 -10 135 -3 25 -7 83 -10 130 -3 47
-8 110 -10 140 -5 59 -11 158 -20 310 -3 52 -8 129 -10 170 -2 41 -7 122 -10
180 -3 58 -8 135 -10 172 -4 62 -9 165 -20 418 -3 58 -7 155 -10 215 -3 61 -7
175 -10 255 -3 80 -7 195 -10 255 -14 375 -23 726 -40 1560 -2 99 -6 567 -10
1040 -5 862 -13 1587 -19 1765 -14 380 -27 678 -41 880 -2 30 -6 98 -10 150
-6 102 -13 202 -21 290 -2 30 -6 89 -9 130 -3 41 -7 93 -10 115 -2 22 -7 72
-10 110 -3 39 -8 90 -10 115 -3 25 -7 70 -10 100 -3 30 -9 93 -15 140 -5 47
-12 109 -15 138 -3 28 -7 67 -9 85 -3 17 -8 61 -12 97 -3 36 -8 74 -9 85 -2
11 -6 41 -9 67 -3 26 -8 62 -11 80 -2 18 -12 87 -20 153 -9 66 -17 134 -20
150 -11 71 -37 253 -41 282 -2 18 -11 72 -19 120 -9 49 -18 104 -21 123 -11
75 -19 120 -69 390 -24 135 -53 288 -64 340 -11 52 -22 106 -25 120 -2 14 -10
50 -16 80 -7 30 -16 73 -20 95 -18 85 -81 359 -85 365 -2 3 -6 21 -9 40 -5 31
-15 73 -31 133 -3 9 -7 25 -9 35 -19 77 -77 300 -101 387 -10 33 -21 78 -26
100 -6 22 -19 69 -29 105 -11 36 -40 133 -64 215 -99 335 -243 768 -353 1060
-117 312 -130 345 -179 460 -7 17 -22 55 -34 85 -12 30 -28 69 -35 85 -7 17
-52 118 -99 226 -142 324 -305 663 -465 964 -50 93 -91 171 -91 172 0 20 -433
739 -550 913 -169 252 -367 533 -465 661 -27 36 -61 81 -75 99 -80 107 -469
584 -490 600 -4 3 -40 43 -81 90 -40 47 -83 94 -94 106 -11 12 -65 70 -120
129 -132 143 -410 421 -565 565 -68 63 -135 126 -150 140 -14 14 -60 54 -101
90 -40 36 -76 67 -79 70 -3 3 -34 30 -70 60 -35 30 -73 63 -85 74 -47 43 -460
370 -580 459 -71 54 -134 100 -140 105 -114 86 -556 384 -730 491 -66 41 -136
84 -155 97 -36 23 -301 178 -380 222 -25 13 -58 32 -75 42 -212 124 -698 367
-1108 554 -110 50 -452 193 -597 250 -80 31 -154 61 -165 66 -188 82 -925 329
-1345 450 -41 12 -91 27 -110 33 -19 6 -39 12 -45 13 -5 1 -77 20 -160 42
-285 78 -661 170 -905 222 -144 31 -280 60 -304 64 -11 2 -91 18 -176 34 -85
17 -167 33 -183 36 -15 3 -55 10 -90 16 -34 7 -73 14 -87 16 -14 2 -41 7 -60
10 -38 6 -53 9 -115 19 -22 4 -49 9 -60 11 -21 3 -255 40 -315 49 -19 3 -62
10 -95 15 -33 5 -82 12 -110 15 -27 4 -77 10 -110 15 -33 5 -82 12 -110 15
-27 4 -62 8 -77 11 -15 2 -47 6 -70 9 -24 2 -63 7 -88 10 -83 10 -115 14 -170
20 -30 3 -71 8 -90 10 -19 2 -60 7 -90 10 -30 3 -71 8 -90 10 -19 2 -64 7
-100 10 -36 3 -85 8 -110 11 -25 2 -70 6 -100 9 -30 2 -81 7 -112 10 -70 6
-145 12 -258 21 -47 3 -101 7 -120 9 -19 2 -82 6 -140 10 -58 3 -127 8 -155 9
-53 4 -273 17 -365 21 -30 2 -138 6 -240 10 -102 4 -223 10 -270 12 -47 3
-2873 7 -6281 10 l-6197 4 -129 -183 c-211 -297 -293 -414 -398 -571 -162
-239 -334 -500 -345 -522 -6 -11 -42 -67 -80 -125 -38 -58 -102 -158 -142
-223 -40 -65 -88 -141 -106 -170 -28 -45 -105 -172 -137 -225 -32 -54 -227
-383 -280 -472 -34 -58 -105 -181 -157 -275 -90 -162 -118 -212 -189 -342 -18
-32 -43 -78 -57 -103 -33 -61 -112 -208 -194 -365 -82 -154 -475 -941 -502
-1005 -11 -25 -43 -94 -72 -155 -176 -371 -454 -1012 -629 -1450 -59 -148
-111 -279 -115 -290 -5 -11 -25 -63 -45 -115 -20 -52 -43 -111 -50 -130 -58
-143 -288 -789 -395 -1110 -80 -242 -255 -792 -265 -836 -2 -11 -16 -57 -30
-104 -70 -229 -304 -1088 -321 -1176 -2 -11 -24 -101 -48 -200 -49 -198 -75
-306 -82 -344 -3 -14 -10 -43 -15 -65 -14 -60 -16 -67 -53 -240 -59 -272 -84
-394 -116 -555 -34 -171 -37 -191 -45 -235 -3 -16 -12 -64 -20 -105 -8 -41
-17 -88 -20 -105 -2 -16 -7 -41 -9 -55 -3 -14 -8 -41 -10 -60 -3 -19 -7 -44
-10 -55 -2 -11 -7 -40 -11 -65 -4 -25 -9 -52 -10 -60 -1 -8 -6 -35 -10 -60 -4
-25 -9 -54 -11 -65 -3 -11 -7 -36 -9 -55 -3 -19 -7 -44 -10 -55 -2 -11 -16
-96 -30 -190 -14 -93 -28 -181 -30 -195 -2 -14 -6 -43 -9 -65 -3 -22 -13 -89
-21 -150 -9 -60 -18 -128 -21 -150 -3 -22 -7 -51 -9 -65 -2 -14 -6 -43 -9 -65
-3 -22 -8 -58 -11 -80 -2 -22 -7 -60 -10 -85 -3 -25 -7 -61 -10 -80 -2 -19 -7
-60 -11 -90 -3 -30 -8 -68 -10 -85 -3 -29 -8 -74 -20 -180 -3 -27 -7 -66 -9
-85 -4 -30 -7 -66 -20 -190 -2 -14 -6 -59 -9 -100 -4 -41 -9 -91 -11 -110 -2
-19 -7 -69 -10 -110 -3 -41 -8 -95 -10 -120 -2 -25 -7 -79 -10 -120 -4 -41 -8
-95 -10 -120 -2 -25 -7 -85 -10 -135 -3 -49 -7 -108 -9 -130 -2 -22 -7 -101
-11 -175 -4 -74 -9 -157 -11 -185 -1 -27 -5 -111 -9 -186 -3 -74 -8 -166 -10
-205 -27 -507 -27 -1841 0 -2429 2 -38 6 -137 10 -220 3 -82 8 -172 10 -200 2
-27 6 -106 10 -175 4 -69 8 -142 11 -164 2 -21 6 -79 9 -130 5 -87 9 -136 20
-264 3 -31 7 -85 10 -119 9 -118 21 -249 29 -318 2 -22 7 -75 11 -117 3 -42 7
-85 9 -95 2 -10 7 -52 11 -93 3 -41 8 -86 9 -100 2 -14 7 -56 10 -93 4 -37 9
-77 11 -87 2 -10 6 -45 10 -77 3 -32 8 -69 10 -83 2 -14 7 -52 10 -85 3 -33
10 -87 15 -120 5 -33 12 -89 16 -125 3 -36 8 -67 9 -70 2 -3 6 -33 10 -65 3
-33 8 -69 10 -81 3 -11 7 -40 10 -65 3 -24 7 -54 9 -66 3 -11 7 -43 11 -70 4
-26 9 -59 11 -73 2 -14 6 -45 9 -70 3 -25 8 -52 10 -60 2 -8 7 -35 10 -60 3
-25 15 -94 25 -155 11 -60 22 -126 25 -145 3 -19 7 -46 10 -60 3 -14 7 -38 9
-55 3 -16 15 -84 26 -150 12 -66 23 -129 25 -140 4 -29 44 -241 55 -295 14
-64 17 -83 39 -195 22 -115 80 -388 118 -555 14 -63 32 -144 40 -180 20 -92
18 -82 52 -224 17 -70 33 -138 35 -150 6 -27 114 -451 160 -626 41 -158 104
-382 147 -530 17 -58 35 -118 39 -135 126 -468 513 -1618 745 -2215 141 -360
187 -478 195 -495 5 -11 52 -123 104 -250 52 -126 111 -268 131 -315 20 -47
60 -137 87 -200 28 -63 65 -148 84 -188 19 -41 34 -75 34 -77 0 -2 18 -43 41
-92 22 -48 50 -108 61 -133 11 -25 42 -90 68 -145 25 -55 67 -143 91 -195 59
-128 424 -856 500 -1000 74 -139 274 -511 302 -560 11 -19 32 -57 47 -85 15
-27 64 -115 110 -195 45 -80 92 -161 102 -180 170 -300 534 -893 791 -1290
320 -494 790 -1170 1060 -1525 4 -5 29 -39 56 -75 73 -98 383 -503 395 -516 6
-7 20 -24 31 -40 11 -15 34 -44 50 -64 17 -20 44 -53 60 -75 43 -54 159 -199
165 -205 3 -3 23 -27 45 -55 22 -27 48 -59 57 -70 9 -11 78 -94 153 -185 75
-91 142 -169 149 -175 7 -5 17 -17 22 -26 5 -9 29 -39 54 -66 25 -28 56 -63
69 -79 85 -101 502 -571 607 -684 23 -25 56 -61 74 -80 383 -417 995 -1034
1485 -1495 18 -16 81 -75 141 -130 60 -54 132 -120 159 -146 28 -26 102 -93
166 -150 113 -102 147 -132 339 -299 52 -45 109 -94 125 -109 17 -15 116 -98
220 -185 105 -88 197 -165 205 -172 66 -59 438 -357 660 -529 113 -88 210
-163 215 -168 16 -13 228 -170 259 -192 15 -11 33 -25 40 -30 39 -35 510 -375
791 -570 272 -189 1049 -700 1187 -780 9 -5 43 -26 75 -46 118 -74 644 -389
649 -389 2 0 33 -18 67 -39 34 -22 85 -52 114 -68 28 -15 84 -47 125 -69 316
-178 292 -165 563 -312 254 -138 446 -236 872 -447 238 -118 434 -215 436
-215 2 0 60 -26 128 -59 143 -68 191 -90 389 -178 80 -36 178 -80 218 -99 41
-19 76 -34 78 -34 3 0 24 -9 47 -19 23 -10 119 -51 212 -91 94 -39 184 -78
200 -85 17 -7 55 -23 85 -35 30 -12 69 -28 85 -35 33 -15 254 -104 350 -140
142 -54 302 -116 320 -125 11 -5 72 -27 135 -50 63 -22 124 -45 135 -50 77
-35 767 -273 1130 -389 72 -23 166 -54 209 -68 95 -30 235 -73 256 -78 8 -2
35 -10 60 -18 92 -31 874 -252 980 -277 19 -5 178 -45 353 -89 175 -44 331
-82 345 -84 15 -3 56 -13 92 -22 36 -9 76 -19 90 -21 14 -3 63 -14 110 -25 47
-11 105 -24 130 -29 25 -5 56 -12 70 -15 28 -7 37 -9 135 -30 53 -11 484 -98
647 -130 9 -2 38 -7 65 -11 26 -5 50 -9 53 -9 16 -4 255 -47 385 -70 17 -2 41
-7 55 -10 24 -5 84 -14 130 -20 14 -2 57 -9 95 -15 39 -7 84 -14 100 -17 17
-2 41 -6 55 -9 14 -2 88 -13 165 -24 77 -12 151 -23 165 -25 50 -8 176 -25
215 -30 52 -6 194 -25 225 -30 14 -2 48 -6 75 -9 28 -3 68 -8 90 -11 89 -11
145 -17 260 -30 33 -3 74 -8 90 -11 17 -2 57 -6 90 -10 33 -3 74 -7 90 -9 17
-2 62 -6 100 -10 39 -3 88 -8 110 -10 207 -20 219 -21 320 -29 44 -4 105 -9
135 -11 134 -12 181 -15 270 -20 52 -3 113 -8 135 -10 22 -3 90 -7 150 -10 61
-4 137 -8 170 -10 57 -3 214 -11 410 -20 553 -27 1766 -27 2360 0 133 6 320
16 370 20 28 2 104 7 170 10 66 4 134 8 150 10 17 2 77 7 135 10 58 3 119 7
135 9 17 2 71 7 120 11 50 3 108 8 130 10 22 2 72 7 110 10 39 3 88 8 110 10
38 4 103 10 210 20 53 5 126 13 185 20 19 2 64 7 100 10 36 3 74 7 85 9 11 2
49 7 85 10 36 4 75 8 85 10 11 2 49 7 85 11 80 8 150 16 170 20 8 1 40 6 70
10 30 4 64 9 75 11 11 2 34 7 50 9 85 15 253 45 278 50 62 12 84 16 132 25 28
5 61 12 75 15 14 3 37 7 53 10 15 3 60 12 100 21 39 8 83 18 97 20 14 3 32 7
40 9 8 2 31 7 50 10 19 3 51 10 70 15 19 5 47 12 62 15 16 3 40 7 55 11 16 3
78 16 138 30 61 14 121 27 135 30 14 3 33 7 42 10 9 3 25 7 35 9 16 3 86 19
136 31 9 2 25 6 35 8 85 20 366 87 587 142 149 36 277 67 285 69 8 2 109 27
223 56 201 50 208 51 222 33 8 -11 15 -24 15 -30 0 -16 103 -223 153 -309 79
-137 193 -300 305 -435 91 -109 347 -356 426 -409 12 -8 23 -18 26 -21 14 -16
187 -134 278 -189 97 -58 315 -169 392 -200 110 -43 146 -56 255 -92 116 -38
377 -100 480 -114 28 -3 64 -8 80 -11 128 -18 320 -28 530 -28 415 0 673 50
984 191 40 18 77 33 80 33 4 0 22 -35 41 -77 52 -121 261 -543 340 -688 57
-104 173 -303 263 -450 31 -50 302 -461 311 -472 6 -6 36 -47 66 -90 30 -43
102 -141 160 -219 l106 -140 229 97 c127 54 250 107 275 118 25 10 110 47 190
81 80 34 163 70 185 80 22 10 74 32 115 50 41 18 100 44 130 57 30 14 64 29
75 33 39 15 654 290 925 413 293 133 302 137 650 299 36 17 134 64 218 104 84
41 155 74 157 74 11 0 907 443 1140 565 66 34 192 100 280 145 88 46 169 88
180 95 11 7 67 37 125 68 185 96 601 325 670 367 25 16 68 40 95 55 28 14 57
30 65 36 8 5 103 60 210 122 760 443 1493 912 2113 1351 164 117 360 257 417
299 103 75 565 421 570 426 3 3 43 35 90 70 81 62 383 297 425 333 11 9 133
107 270 219 138 111 252 205 255 209 3 3 46 39 95 80 101 83 384 323 419 355
6 6 61 53 121 105 61 52 126 109 145 126 49 44 134 119 209 184 35 30 75 66
90 80 36 33 129 118 172 155 19 17 60 54 91 83 50 44 61 50 80 42 26 -11 219
-66 258 -74 102 -20 139 -27 170 -31 64 -9 234 -19 310 -19 79 0 291 13 300
19 3 1 30 6 60 9 30 4 71 11 90 16 19 5 66 17 104 25 266 63 568 212 816 403
110 85 308 284 388 390 192 253 333 543 397 812 20 86 36 167 45 224 38 247
29 544 -24 786 -45 209 -105 379 -194 550 -48 93 -150 260 -182 300 -11 14
-41 52 -67 85 -261 328 -634 587 -1037 719 -63 21 -111 34 -133 37 -5 1 -18 5
-29 10 -12 4 -73 17 -135 28 -401 72 -833 32 -1199 -111 -88 -34 -292 -132
-329 -158 -14 -9 -57 -38 -96 -62 -235 -151 -484 -401 -641 -644 -177 -274
-288 -568 -339 -899 -20 -132 -28 -554 -13 -700 20 -186 53 -315 126 -479 l35
-79 -39 -35 c-46 -41 -201 -181 -224 -202 -147 -141 -885 -764 -1170 -987
-335 -263 -448 -348 -826 -619 -294 -210 -484 -341 -814 -561 -435 -289 -1076
-703 -1089 -703 -5 0 -11 -3 -13 -8 -5 -12 -386 -252 -400 -252 -7 1 -120 161
-251 358 -131 196 -247 368 -257 382 -10 14 -67 95 -126 180 -88 125 -338 474
-424 590 -10 14 -62 85 -114 158 l-96 132 37 33 c20 17 46 40 56 50 87 86 628
457 665 457 6 0 46 -18 88 -40 118 -61 300 -126 413 -147 14 -2 27 -6 31 -8 6
-4 157 -31 225 -40 93 -12 240 -20 390 -20 205 0 317 11 475 46 204 46 340 94
520 183 564 281 983 790 1154 1401 25 91 57 244 61 300 2 17 6 59 10 95 12
111 7 391 -9 475 -2 11 -7 45 -11 75 -32 246 -171 618 -306 817 -16 24 -29 46
-29 49 0 2 -25 38 -55 79 -247 333 -547 577 -905 736 -93 41 -268 103 -320
114 -8 2 -42 10 -75 18 -159 41 -318 56 -550 52 -225 -3 -354 -20 -530 -70
-49 -14 -99 -27 -110 -30 -11 -2 -36 -11 -55 -19 -19 -8 -62 -24 -95 -37 -168
-62 -390 -193 -565 -333 -75 -59 -275 -256 -317 -312 -13 -16 -37 -47 -54 -69
-246 -315 -414 -748 -445 -1145 -3 -41 -7 -95 -10 -120 -2 -25 -6 -146 -9
-270 -4 -220 1 -285 37 -407 1 -6 -20 -29 -48 -50 -28 -21 -66 -50 -85 -65
-45 -36 -232 -177 -579 -438 -255 -192 -571 -434 -625 -478 -11 -10 -65 -53
-120 -96 -55 -43 -104 -84 -110 -90 -5 -6 -46 -40 -90 -76 -44 -36 -93 -77
-110 -91 -79 -69 -213 -187 -243 -215 l-34 -31 17 -34 c25 -49 244 -419 266
-451 11 -14 19 -29 19 -32 0 -3 14 -29 31 -58 127 -213 194 -326 203 -343 31
-56 374 -629 532 -889 30 -48 54 -92 54 -96 0 -5 3 -10 8 -12 4 -2 41 -58 82
-126 41 -67 94 -153 117 -190 23 -37 46 -74 50 -82 6 -14 61 -101 118 -190 13
-19 76 -120 140 -225 65 -104 132 -212 150 -240 91 -141 114 -184 102 -193
-12 -9 -788 -474 -897 -537 -438 -254 -686 -382 -1050 -542 -69 -30 -138 -60
-155 -68 -89 -39 -476 -197 -540 -220 -27 -10 -54 -21 -60 -25 -22 -14 -134
-51 -213 -69 l-84 -19 -21 25 c-12 14 -27 31 -33 37 -27 28 -193 246 -222 291
-17 28 -35 55 -39 60 -53 68 -167 290 -248 482 -36 87 -72 171 -79 187 -12 28
-10 34 34 106 54 86 126 226 163 315 54 131 128 384 151 515 3 19 8 46 11 60
9 46 24 163 40 315 18 164 23 515 11 655 -14 159 -44 364 -62 422 -3 10 -8 30
-10 45 -37 205 -180 573 -317 818 -64 113 -216 340 -262 391 -5 6 -23 27 -38
47 -115 146 -346 374 -492 483 -27 21 -52 41 -55 44 -3 3 -59 42 -125 86 -260
175 -521 300 -835 399 -70 22 -191 54 -230 60 -19 3 -51 10 -70 15 -35 9 -66
14 -150 25 -25 3 -61 8 -80 10 -182 26 -632 26 -855 1 -115 -13 -160 -19 -235
-31 -47 -8 -96 -17 -110 -20 -22 -4 -62 -12 -110 -20 -52 -9 -240 -61 -348
-96 -725 -234 -1275 -671 -1585 -1259 -150 -283 -244 -601 -273 -925 -4 -38
-8 -77 -10 -85 -1 -8 -3 -24 -3 -36 -1 -11 -7 -21 -13 -21 -7 -1 -159 -35
-338 -76 -289 -67 -475 -109 -535 -121 -11 -3 -65 -14 -120 -26 -125 -27 -121
-26 -260 -54 -84 -18 -445 -88 -465 -91 -14 -2 -63 -11 -110 -20 -88 -16 -339
-60 -400 -69 -19 -3 -46 -8 -59 -10 -12 -3 -42 -8 -65 -10 -22 -3 -99 -14
-171 -25 -71 -11 -150 -23 -175 -26 -25 -3 -56 -8 -70 -10 -14 -2 -52 -7 -85
-11 -33 -3 -68 -8 -79 -10 -19 -3 -92 -12 -156 -18 -19 -2 -53 -6 -75 -9 -22
-3 -67 -8 -100 -12 -33 -3 -76 -7 -95 -10 -19 -3 -64 -7 -100 -10 -36 -3 -81
-7 -100 -9 -19 -3 -71 -7 -115 -10 -44 -4 -96 -8 -115 -11 -19 -2 -75 -7 -125
-10 -49 -4 -107 -9 -127 -10 -54 -5 -233 -16 -302 -20 -34 -2 -108 -6 -166
-10 -58 -3 -145 -8 -195 -10 -133 -5 -438 -17 -535 -21 -242 -8 -1298 -15
-1303 -7 -3 4 -8 60 -11 123 -4 63 -8 135 -10 160 -3 25 -7 87 -11 138 -3 51
-8 112 -10 135 -2 23 -6 89 -10 147 -4 58 -8 123 -10 145 -2 22 -6 81 -10 130
-3 50 -7 117 -10 150 -3 33 -7 101 -10 150 -3 50 -8 113 -10 140 -3 28 -7 91
-10 140 -3 50 -8 113 -10 140 -2 28 -7 91 -10 140 -6 98 -15 220 -19 260 -4
32 -1 32 169 40 77 4 169 8 205 10 117 5 362 15 495 20 309 11 538 24 710 40
199 20 207 21 365 46 69 11 136 22 150 24 34 5 171 33 245 51 l60 14 23 -28
c243 -286 578 -495 973 -606 83 -23 275 -63 344 -71 33 -4 71 -9 85 -11 47 -7
255 -18 335 -17 75 0 238 11 275 18 10 2 41 6 71 10 85 11 305 69 414 110 55
21 147 61 205 90 141 71 143 72 240 136 362 238 666 604 833 1004 44 106 101
283 114 355 2 14 8 41 13 60 5 19 12 57 15 84 4 28 8 53 10 56 6 9 18 207 18
295 1 86 -11 277 -18 297 -2 7 -6 36 -9 63 -8 75 -60 276 -101 395 -64 184
-185 410 -304 569 -31 40 -65 87 -76 102 -44 63 -296 299 -399 373 -185 134
-384 239 -589 311 -87 31 -284 81 -351 90 -27 3 -52 8 -56 10 -26 16 -382 25
-525 13 -161 -14 -440 -75 -540 -118 -11 -5 -31 -12 -45 -16 -53 -14 -329
-155 -419 -214 -473 -308 -805 -769 -945 -1313 -19 -72 -37 -157 -41 -187 -4
-30 -8 -57 -10 -60 -5 -8 -19 -193 -19 -258 -1 -37 -5 -53 -16 -57 -14 -4
-247 -48 -315 -60 -49 -8 -227 -34 -272 -40 -24 -3 -62 -8 -85 -11 -24 -3 -61
-7 -83 -9 -22 -2 -62 -6 -90 -9 -124 -14 -341 -29 -570 -41 -213 -11 -449 -14
-1385 -16 -520 -2 -971 -5 -1003 -7 l-59 -4 6 -126 c4 -70 9 -165 11 -212 3
-47 7 -139 10 -205 3 -66 7 -174 10 -240 3 -66 8 -160 10 -210 6 -155 17 -387
20 -460 2 -38 7 -135 10 -215 3 -80 8 -181 10 -225 2 -44 7 -145 10 -225 3
-80 8 -176 10 -215 2 -38 7 -135 10 -215 3 -80 8 -181 10 -225 2 -44 7 -143
10 -220 3 -77 7 -180 10 -230 3 -49 7 -143 10 -208 l6 -118 -78 6 c-43 3 -96
8 -118 10 -38 4 -130 12 -225 20 -25 2 -70 7 -100 10 -30 3 -74 8 -97 11 -24
2 -62 6 -85 9 -24 2 -70 7 -103 10 -33 3 -94 10 -135 16 -41 5 -95 11 -120 14
-104 13 -131 16 -245 30 -66 9 -140 18 -165 21 -25 4 -47 7 -50 9 -3 2 -34 6
-70 10 -36 4 -74 9 -85 11 -10 2 -37 6 -60 9 -22 3 -51 8 -65 10 -14 3 -45 7
-70 10 -25 3 -56 7 -70 10 -14 2 -38 7 -55 9 -73 12 -595 99 -640 108 -27 5
-63 11 -80 14 -16 3 -73 14 -125 24 -52 11 -111 22 -130 25 -19 3 -42 8 -50
10 -8 2 -31 7 -50 10 -34 6 -367 73 -399 81 -9 2 -47 10 -86 19 -38 8 -79 17
-90 20 -32 8 -118 26 -145 31 -132 25 -783 185 -995 244 -38 11 -180 51 -315
89 -383 108 -747 218 -1040 314 -36 12 -68 22 -72 23 -5 1 -9 2 -11 3 -1 0
-117 40 -257 87 -140 47 -269 92 -287 100 -17 8 -34 14 -37 14 -9 0 -326 114
-391 140 -11 5 -94 36 -185 71 -316 119 -857 334 -901 359 -9 4 -55 24 -103
44 -226 94 -608 266 -1011 456 -481 227 -1218 610 -1688 879 -140 80 -186 106
-217 124 -19 11 -52 30 -72 41 -148 83 -614 368 -921 562 -194 122 -754 496
-972 649 -230 162 -725 521 -735 534 -3 3 -23 19 -46 34 -22 15 -49 35 -60 45
-11 9 -55 44 -99 77 -44 33 -114 86 -155 119 -41 32 -90 70 -109 85 -59 46
-302 239 -345 275 -22 19 -97 81 -166 138 -159 131 -135 111 -345 289 -99 84
-187 159 -196 168 -9 9 -29 27 -45 40 -41 35 -179 157 -244 216 -30 27 -98 88
-150 135 -52 47 -121 110 -155 141 -33 31 -76 71 -95 89 -248 228 -885 859
-1150 1139 -85 90 -168 178 -185 195 -30 32 -210 228 -276 301 -192 212 -379
426 -574 655 -53 63 -107 126 -119 140 -18 21 -267 325 -303 370 -46 57 -128
158 -141 175 -56 67 -323 415 -479 624 -100 135 -187 251 -191 256 -13 16
-322 451 -387 545 -102 147 -417 619 -506 758 -46 72 -105 165 -132 205 -26
39 -50 79 -54 87 -3 8 -18 33 -33 55 -107 160 -571 952 -716 1220 -20 39 -46
86 -57 105 -129 229 -500 952 -668 1305 -88 184 -287 621 -354 775 -16 36 -41
94 -57 130 -43 96 -44 97 -88 205 -23 55 -47 114 -55 130 -7 17 -52 127 -99
245 -48 118 -91 224 -96 235 -5 11 -33 85 -64 165 -30 80 -66 177 -81 215
-129 337 -368 1028 -466 1340 -86 279 -201 661 -232 775 -9 30 -27 98 -42 150
-15 52 -29 102 -31 110 -1 8 -28 110 -60 225 -31 116 -58 217 -59 225 -5 23
-115 471 -122 500 -4 14 -8 32 -9 40 -1 8 -16 74 -33 145 -28 120 -111 501
-131 605 -43 219 -104 535 -115 600 -5 34 -33 189 -39 220 -3 14 -12 72 -21
130 -16 105 -21 137 -29 175 -2 11 -7 43 -10 70 -4 28 -11 75 -16 105 -5 30
-12 73 -15 95 -2 22 -7 51 -9 65 -2 14 -7 46 -10 71 -4 25 -9 57 -11 70 -2 13
-11 80 -20 149 -9 69 -18 139 -20 155 -3 17 -7 47 -9 69 -3 21 -8 55 -10 75
-3 20 -8 59 -11 86 -3 28 -10 86 -15 130 -18 154 -25 221 -34 320 -4 39 -9 86
-11 105 -3 19 -7 61 -10 93 -9 102 -15 161 -20 212 -4 48 -9 106 -20 260 -3
39 -8 95 -10 125 -5 55 -9 110 -20 290 -3 52 -8 120 -10 150 -2 30 -7 123 -11
205 -3 83 -8 170 -9 195 -27 409 -26 1843 0 2360 1 30 6 118 10 195 3 77 8
169 11 205 2 36 6 103 9 150 6 104 14 225 20 305 12 155 22 272 30 360 3 33 7
83 10 110 2 28 6 73 9 100 3 28 8 79 11 115 8 83 14 136 20 180 2 19 7 64 10
100 4 36 8 79 10 95 6 42 14 111 20 170 5 45 10 83 20 155 2 14 7 50 10 80 3
30 8 66 10 80 2 14 9 63 15 110 6 47 13 96 15 110 5 28 10 61 25 175 6 44 15
103 20 130 5 28 12 68 15 90 8 58 25 166 31 195 2 14 7 41 10 60 17 112 36
224 63 370 12 63 28 153 37 200 8 47 19 105 25 130 5 25 12 61 15 80 3 19 23
118 44 220 22 102 41 196 44 210 4 23 83 375 91 410 2 8 20 84 39 169 51 218
197 785 266 1031 10 36 30 106 44 155 14 50 41 144 61 210 20 66 39 129 42
140 20 74 151 488 233 735 108 327 173 512 304 870 76 208 247 649 281 725 7
17 25 61 40 100 15 38 33 83 40 100 7 16 20 46 28 65 106 252 256 596 340 780
13 30 35 78 47 105 13 28 51 110 86 184 35 73 64 135 64 138 0 7 366 741 430
863 34 63 82 156 108 205 25 50 60 115 78 145 17 30 53 96 79 145 26 50 54 99
60 110 7 11 26 45 42 75 122 226 498 866 638 1085 17 28 67 106 109 175 43 69
151 236 240 373 l161 247 5570 -3 c3064 -1 5581 -6 5595 -9 14 -4 86 -10 160
-13 74 -3 151 -8 170 -10 19 -2 71 -6 115 -9 44 -4 96 -8 115 -10 19 -3 62 -7
95 -11 65 -6 285 -34 325 -40 38 -6 113 -17 135 -20 20 -3 179 -31 225 -40
276 -52 772 -190 915 -254 11 -5 52 -21 90 -36 417 -158 904 -454 1238 -752
59 -53 314 -309 362 -363 61 -68 138 -160 160 -191 11 -15 47 -62 81 -105 58
-76 223 -315 273 -399 14 -22 33 -53 43 -70 10 -16 21 -38 24 -47 4 -10 10
-18 15 -18 5 0 9 -4 9 -10 0 -5 14 -33 31 -62 18 -29 80 -147 139 -263 90
-178 140 -287 236 -512 8 -18 21 -49 30 -69 15 -33 31 -77 83 -219 13 -33 27
-69 32 -80 5 -11 13 -33 18 -50 5 -16 27 -81 49 -142 22 -62 38 -113 36 -113
-3 0 0 -9 6 -20 17 -31 111 -339 172 -560 33 -119 99 -373 104 -400 3 -14 16
-68 29 -120 13 -52 31 -131 40 -175 9 -44 18 -87 20 -95 6 -23 53 -241 59
-270 2 -14 16 -86 30 -160 14 -74 35 -180 46 -235 10 -55 22 -116 25 -135 3
-19 7 -46 10 -60 2 -14 7 -43 10 -65 3 -23 8 -52 10 -65 6 -28 31 -182 40
-245 4 -22 8 -51 10 -65 7 -42 26 -163 30 -190 2 -14 9 -61 15 -105 13 -96 18
-134 25 -177 2 -18 9 -71 15 -118 6 -47 13 -101 15 -120 3 -19 7 -57 10 -85 4
-27 8 -61 10 -75 2 -14 7 -52 10 -85 4 -33 8 -71 10 -85 2 -14 7 -52 10 -85 3
-33 8 -71 10 -85 2 -14 6 -54 10 -90 4 -36 8 -76 10 -90 3 -23 9 -78 21 -205
2 -27 6 -66 9 -85 2 -19 7 -64 10 -100 3 -36 7 -85 9 -110 3 -25 7 -76 11
-115 3 -38 8 -88 10 -110 3 -22 7 -76 11 -120 3 -44 7 -96 9 -115 1 -19 6 -78
9 -130 4 -52 9 -111 11 -130 3 -19 7 -75 10 -125 3 -49 8 -115 10 -145 2 -30
7 -98 10 -150 3 -52 7 -115 10 -140 2 -25 7 -97 10 -160 4 -63 8 -135 10 -160
2 -25 7 -106 10 -180 3 -74 8 -162 10 -195 2 -33 7 -116 10 -185 3 -69 7 -163
10 -210 2 -47 7 -152 10 -235 3 -82 8 -199 10 -260 20 -456 39 -1151 50 -1831
3 -126 7 -571 10 -989 6 -885 14 -1680 20 -1815 2 -52 6 -167 10 -255 6 -157
9 -210 20 -410 15 -288 20 -359 30 -479 2 -34 7 -101 10 -151 3 -49 8 -106 10
-125 2 -19 6 -71 10 -115 3 -44 8 -91 10 -105 2 -14 6 -65 10 -113 3 -48 8
-96 10 -105 1 -9 6 -48 9 -87 7 -67 41 -378 51 -458 3 -20 7 -56 10 -80 3 -23
8 -60 10 -82 3 -22 7 -53 10 -70 2 -16 7 -50 10 -75 11 -82 44 -314 50 -355 3
-22 13 -80 21 -130 22 -131 22 -136 29 -185 3 -25 8 -52 10 -60 2 -8 7 -31 10
-50 8 -51 24 -145 40 -235 5 -27 93 -480 100 -515 41 -199 129 -587 155 -680
5 -19 25 -98 44 -175 19 -77 49 -192 66 -255 18 -63 33 -119 34 -125 22 -94
172 -584 250 -820 110 -329 297 -843 351 -960 7 -16 21 -50 31 -75 39 -102
180 -427 246 -570 22 -47 60 -130 86 -185 116 -251 305 -612 525 -1005 11 -19
28 -47 38 -62 11 -14 19 -29 19 -32 0 -3 23 -42 50 -86 28 -44 50 -84 50 -90
0 -5 5 -10 10 -10 6 0 10 -4 10 -10 0 -19 286 -460 458 -705 199 -283 450
-609 666 -865 85 -100 267 -309 301 -345 11 -12 79 -84 150 -160 240 -257 552
-560 785 -765 47 -41 87 -77 90 -80 3 -3 34 -30 70 -60 36 -30 71 -61 79 -68
83 -79 574 -461 786 -611 351 -250 810 -547 1065 -689 25 -14 59 -33 75 -43
17 -10 51 -29 76 -42 25 -14 62 -34 82 -46 20 -11 66 -36 102 -56 36 -19 95
-52 133 -72 259 -141 791 -393 1107 -525 66 -28 134 -56 150 -63 84 -37 409
-164 590 -230 72 -26 139 -51 150 -56 47 -20 634 -212 790 -257 338 -100 656
-188 825 -228 30 -7 132 -31 225 -54 94 -22 188 -44 210 -49 261 -56 387 -83
420 -91 33 -8 283 -56 390 -75 17 -2 41 -7 55 -10 21 -4 248 -44 340 -60 63
-10 279 -44 310 -49 133 -18 269 -38 290 -42 14 -2 61 -8 105 -14 77 -10 113
-14 193 -25 20 -3 62 -7 92 -10 30 -3 66 -8 80 -10 25 -5 67 -9 175 -20 33 -4
74 -8 90 -10 91 -11 127 -15 200 -20 44 -4 91 -8 105 -10 14 -3 57 -7 95 -10
73 -6 131 -11 225 -19 30 -3 96 -8 145 -11 50 -4 99 -8 110 -10 11 -2 81 -7
155 -10 74 -4 141 -8 150 -10 9 -2 83 -6 165 -10 83 -3 179 -8 215 -10 36 -2
146 -6 245 -10 99 -4 216 -10 260 -13 44 -3 2866 -7 6271 -9 l6192 -4 83 118
c46 65 93 130 104 146 11 15 42 60 70 100 27 40 52 74 55 77 6 6 84 120 259
380 72 107 136 202 141 210 15 21 126 193 179 276 25 38 68 105 96 149 195
301 655 1064 655 1085 0 4 8 18 19 31 10 13 35 56 56 94 42 77 90 162 105 185
5 8 26 47 46 85 20 39 45 82 56 98 11 15 16 27 13 27 -3 0 2 12 13 28 23 34
112 198 274 507 93 177 403 797 470 940 26 55 68 145 94 200 133 285 330 727
433 975 29 69 59 139 66 155 74 164 465 1171 465 1197 0 4 9 27 19 51 11 23
28 69 39 102 11 33 48 139 82 235 87 249 337 1010 346 1055 1 6 25 87 53 180
29 94 59 193 66 220 27 92 127 450 130 465 2 8 20 74 39 145 20 72 39 144 41
160 3 17 10 41 15 55 8 21 19 63 55 214 2 10 13 53 24 95 11 42 22 87 25 101
3 14 26 113 51 220 26 107 49 206 51 220 3 14 16 72 29 130 13 58 26 116 29
130 2 14 19 90 36 170 40 183 37 172 44 211 3 19 16 86 29 149 23 108 39 199
37 210 -1 3 3 16 8 30 5 14 13 48 16 75 4 28 11 66 16 85 5 19 11 53 14 75 3
22 8 51 10 65 9 42 94 551 101 605 4 28 9 59 10 70 10 60 57 385 61 415 2 19
6 49 9 65 2 17 7 53 10 80 4 28 8 61 11 75 2 14 6 50 9 80 3 30 8 64 10 75 2
11 6 47 10 80 3 33 8 69 10 80 2 11 7 52 10 90 3 39 8 77 10 85 2 8 7 51 11
95 3 44 8 89 10 100 2 11 7 49 10 85 3 36 7 76 9 90 2 14 6 63 10 110 4 47 8
96 10 110 2 14 6 59 10 100 3 41 8 95 10 120 11 124 20 248 30 390 3 47 8 110
10 140 4 52 10 154 20 320 2 41 7 138 10 215 3 77 8 169 10 205 27 432 27
1888 0 2410 -2 47 -7 148 -10 225 -3 77 -8 169 -10 205 -3 36 -7 108 -10 160
-3 52 -8 124 -10 160 -3 36 -7 99 -10 140 -11 164 -15 217 -19 260 -3 25 -8
81 -11 125 -3 44 -8 100 -10 125 -3 25 -7 74 -10 110 -3 36 -8 76 -10 90 -2
14 -7 66 -10 115 -3 50 -8 97 -10 105 -2 8 -6 42 -10 75 -24 238 -26 260 -30
285 -3 24 -7 53 -20 160 -4 39 -26 205 -40 310 -6 41 -35 263 -40 300 -2 14
-8 54 -13 90 -6 36 -13 85 -16 110 -4 25 -8 59 -11 75 -3 17 -10 59 -15 95 -6
36 -15 90 -20 120 -6 30 -12 73 -16 95 -10 67 -14 91 -55 325 -22 124 -42 234
-44 245 -2 11 -8 46 -14 78 -6 31 -15 81 -20 110 -14 76 -66 334 -95 467 -14
63 -27 126 -30 140 -3 21 -23 110 -41 193 -2 10 -6 26 -9 35 -3 9 -8 31 -10
48 -3 16 -26 118 -51 225 -26 107 -48 202 -50 212 -2 10 -6 26 -9 35 -3 9 -7
28 -10 42 -9 50 -138 549 -187 725 -28 99 -53 189 -55 200 -2 11 -24 90 -50
175 -25 85 -49 171 -54 190 -16 71 -206 677 -305 975 -69 206 -164 484 -175
510 -4 11 -21 58 -38 105 -147 416 -465 1234 -557 1435 -8 17 -36 84 -64 150
-63 154 -166 388 -235 538 -20 42 -36 79 -36 82 0 2 -20 46 -44 97 -24 51 -60
129 -81 173 -107 233 -179 379 -381 780 -121 242 -250 494 -286 560 -36 66
-87 161 -113 210 -26 50 -51 95 -55 100 -4 6 -27 46 -50 90 -132 248 -510 896
-709 1215 -22 36 -54 88 -71 115 -40 67 -47 78 -102 163 -27 40 -48 75 -48 78
0 2 -4 10 -10 17 -5 7 -32 46 -58 87 -27 41 -74 113 -104 160 -30 47 -67 103
-81 125 -95 149 -596 877 -640 930 -4 6 -60 82 -124 170 -345 477 -819 1086
-1217 1560 -104 125 -451 528 -491 571 -5 6 -39 44 -75 85 -36 41 -86 97 -111
124 -25 28 -63 70 -85 94 -64 72 -145 160 -338 366 -415 444 -1078 1101 -1467
1455 -51 47 -111 102 -133 123 -22 22 -54 50 -71 64 -16 14 -53 46 -80 72
-105 96 -162 148 -230 206 -38 33 -90 78 -115 101 -38 35 -174 151 -385 330
-86 73 -301 251 -358 296 -82 66 -248 199 -266 214 -9 7 -65 52 -126 99 -60
48 -117 92 -125 98 -8 7 -44 34 -80 62 -36 27 -67 52 -70 55 -9 10 -603 451
-731 543 -592 422 -1207 832 -1734 1154 -246 151 -516 313 -520 313 -1 0 -60
34 -130 75 -142 84 -685 387 -870 485 -66 35 -174 93 -240 127 -135 71 -925
465 -1025 511 -36 16 -135 62 -220 102 -202 94 -491 223 -710 317 -96 41 -191
82 -210 90 -19 8 -44 19 -55 24 -11 4 -87 36 -170 69 -82 34 -159 65 -170 70
-58 27 -516 204 -750 291 -312 115 -983 350 -1040 364 -5 1 -23 7 -38 13 -16
7 -31 12 -34 12 -3 0 -96 29 -207 65 -170 54 -528 163 -776 235 -61 18 -261
73 -480 133 -123 34 -408 107 -440 113 -14 3 -39 9 -56 15 -17 5 -41 12 -53
14 -11 3 -31 7 -43 10 -11 2 -76 18 -142 34 -213 52 -713 165 -817 185 -13 2
-103 20 -199 40 -96 19 -191 38 -210 41 -19 3 -42 8 -50 10 -8 2 -32 6 -54 10
-21 3 -41 7 -45 10 -4 2 -30 7 -57 10 -27 4 -57 9 -66 11 -10 3 -28 7 -40 9
-68 11 -163 29 -218 40 -14 2 -38 7 -55 9 -16 3 -129 21 -250 41 -370 60 -398
64 -450 70 -27 3 -57 8 -65 10 -8 2 -35 7 -60 10 -25 3 -63 8 -85 11 -22 3
-51 7 -65 9 -30 5 -169 23 -225 30 -22 3 -56 7 -75 10 -51 7 -194 24 -250 30
-14 2 -45 6 -70 9 -25 3 -67 8 -95 11 -27 3 -66 7 -85 10 -19 2 -62 7 -95 10
-33 3 -78 7 -100 10 -22 2 -66 7 -97 10 -105 9 -172 16 -213 20 -79 8 -151 15
-220 20 -38 3 -92 7 -120 10 -27 2 -86 7 -130 10 -44 3 -102 8 -130 10 -27 2
-93 7 -145 10 -52 3 -122 8 -155 10 -215 14 -544 29 -880 40 -60 2 -279 6
-485 9 -357 5 -640 13 -760 21 -30 2 -111 7 -180 10 -69 3 -154 8 -190 10 -36
2 -112 7 -170 10 -58 3 -130 8 -160 10 -30 2 -104 7 -165 10 -60 4 -126 8
-145 10 -19 2 -75 7 -125 10 -138 9 -322 24 -385 30 -19 2 -73 7 -120 10 -47
4 -96 8 -110 10 -14 2 -61 7 -105 10 -44 4 -96 8 -115 10 -19 2 -66 7 -105 10
-38 4 -79 8 -90 10 -11 1 -56 6 -100 10 -44 4 -87 9 -96 10 -9 2 -52 6 -95 10
-43 4 -82 9 -85 11 -3 1 -37 6 -75 9 -38 3 -76 8 -84 10 -8 2 -46 7 -85 11
-38 3 -72 8 -75 9 -3 2 -34 6 -70 9 -36 4 -87 11 -115 16 -27 5 -72 12 -100
15 -27 3 -93 13 -145 21 -52 8 -106 17 -120 19 -61 9 -117 18 -135 21 -11 3
-72 13 -135 24 -63 10 -146 25 -185 34 -38 8 -86 17 -105 20 -19 3 -44 7 -55
10 -183 37 -265 56 -455 102 -283 68 -484 127 -790 233 -228 79 -540 225 -755
354 -130 78 -448 293 -509 344 -11 9 -40 31 -65 50 -40 31 -148 120 -161 133
-3 3 -45 39 -95 80 -49 41 -96 80 -103 87 -7 7 -34 29 -60 50 -26 21 -49 41
-52 44 -3 3 -49 40 -103 82 -304 236 -500 317 -620 255z m1008 -4183 c17 -3
64 -13 105 -21 118 -25 296 -90 405 -150 451 -246 758 -697 813 -1194 11 -103
7 -337 -7 -425 -73 -439 -312 -812 -681 -1062 -74 -50 -222 -127 -290 -152
-19 -7 -44 -17 -55 -21 -130 -54 -317 -85 -515 -84 -215 0 -356 23 -542 90
-73 25 -284 127 -298 143 -3 3 -25 19 -50 36 -63 41 -185 145 -245 208 -205
213 -351 490 -404 767 -6 30 -15 78 -20 105 -11 54 -8 388 3 445 43 221 86
349 166 498 74 137 152 243 260 351 134 136 146 146 267 225 207 136 433 216
698 250 44 5 355 -2 390 -9z m31450 -49135 c267 -69 470 -259 556 -521 134
-407 -119 -863 -541 -975 -70 -19 -250 -25 -333 -11 -100 16 -231 75 -326 145
-119 88 -251 285 -277 412 -2 14 -9 47 -14 74 -15 72 -12 212 5 286 72 311
314 544 620 598 68 12 249 7 310 -8z m-5963 -50 c232 -78 410 -257 488 -490
26 -76 34 -136 34 -245 0 -101 -7 -145 -39 -242 -140 -417 -608 -628 -1021
-460 -210 85 -376 270 -444 497 -27 86 -36 259 -19 350 54 283 265 519 535
598 97 29 104 30 244 27 112 -1 135 -5 222 -35z m-14447 -305 c276 -59 511
-277 582 -540 30 -111 32 -122 33 -195 7 -361 -230 -676 -575 -766 -103 -26
-279 -28 -375 -2 -180 47 -361 171 -445 303 -11 17 -22 32 -26 35 -3 3 -20 35
-37 73 -138 293 -89 623 126 858 151 164 355 249 582 243 58 -1 119 -5 135 -9z
m5801 -3058 c5 -3 27 -8 49 -11 22 -4 65 -13 95 -22 30 -8 69 -19 85 -23 96
-26 241 -98 365 -182 293 -196 522 -542 585 -882 22 -122 26 -163 27 -268 0
-77 -10 -222 -17 -249 -1 -3 -5 -23 -9 -45 -12 -60 -45 -178 -56 -197 -6 -10
-10 -22 -10 -28 0 -6 -16 -45 -37 -88 -141 -299 -369 -531 -657 -671 -127 -62
-241 -102 -341 -120 -33 -6 -73 -13 -90 -17 -60 -12 -301 -12 -386 1 -156 23
-320 74 -442 137 -50 25 -190 109 -197 117 -3 4 -25 22 -50 41 -78 59 -215
206 -278 297 -79 117 -173 305 -188 377 -2 10 -8 33 -14 51 -6 18 -13 43 -15
56 -3 13 -9 47 -15 74 -25 126 -29 315 -10 445 28 190 97 386 187 528 18 29
33 54 33 57 0 3 6 13 14 22 8 10 41 52 74 93 62 78 135 150 212 210 25 19 47
37 50 40 15 18 210 132 230 135 3 0 14 6 25 12 68 37 277 96 395 110 25 3 47
7 48 8 6 6 329 -2 338 -8z"/>
<path d="M36790 48860 c30 -4 75 -10 100 -13 229 -30 502 -126 717 -253 160
-95 370 -274 486 -414 20 -25 41 -50 46 -56 11 -14 102 -144 118 -170 60 -94
110 -196 183 -369 31 -75 82 -265 101 -375 7 -41 14 -86 17 -100 9 -53 12
-2086 15 -9620 2 -4293 7 -7951 10 -8130 4 -179 9 -462 12 -630 2 -168 7 -397
10 -510 3 -113 7 -297 10 -410 7 -272 15 -547 20 -695 3 -66 7 -192 10 -280 3
-88 8 -205 10 -260 3 -55 7 -158 10 -230 9 -216 15 -345 30 -610 2 -44 7 -132
11 -195 3 -63 7 -140 9 -170 2 -30 7 -102 10 -160 3 -58 8 -125 10 -150 2 -25
7 -88 10 -140 3 -52 8 -113 10 -135 2 -22 6 -85 10 -140 3 -55 8 -111 10 -125
3 -14 7 -70 10 -125 4 -55 8 -111 10 -125 4 -23 8 -64 19 -200 9 -97 17 -186
21 -210 2 -14 7 -56 10 -95 4 -38 8 -81 10 -95 2 -14 7 -56 11 -95 3 -38 8
-78 10 -87 1 -9 6 -48 9 -85 4 -37 9 -75 10 -83 2 -8 6 -46 10 -85 4 -38 9
-79 11 -90 2 -11 7 -40 10 -65 3 -25 7 -56 9 -70 2 -14 16 -104 30 -200 35
-231 31 -211 66 -410 57 -329 192 -943 226 -1030 3 -8 7 -19 8 -25 18 -79 154
-495 180 -552 8 -17 15 -34 15 -37 0 -3 21 -54 46 -113 308 -728 697 -1173
1255 -1437 194 -91 436 -170 649 -211 14 -3 36 -7 50 -10 59 -12 201 -35 280
-45 133 -17 151 -19 220 -25 36 -3 81 -8 100 -10 19 -2 94 -7 165 -10 72 -4
159 -9 195 -12 36 -3 1434 -8 3108 -10 l3042 -4 0 15000 0 15001 -5917 -1
c-3255 -1 -5893 -5 -5863 -9z"/>
<path d="M14570 29870 l0 -15000 5943 1 c4838 1 5925 3 5852 14 -714 100
-1398 663 -1678 1380 -34 88 -85 281 -101 382 -13 86 -15 1119 -16 8798 -1
4785 -3 8959 -5 9275 -4 631 -13 1507 -20 1805 -2 105 -7 325 -10 490 -3 165
-8 336 -10 381 -2 45 -7 175 -10 290 -3 115 -7 243 -10 284 -2 41 -7 149 -10
240 -4 91 -8 190 -10 220 -2 30 -6 111 -10 180 -9 177 -14 274 -20 360 -8 115
-14 197 -20 290 -3 47 -8 105 -10 130 -4 40 -12 151 -20 250 -1 19 -5 62 -9
95 -5 51 -32 323 -41 420 -4 42 -25 225 -30 255 -2 14 -6 45 -10 70 -3 25 -8
63 -11 85 -3 22 -7 51 -9 65 -2 14 -6 43 -9 65 -3 22 -8 60 -11 85 -4 25 -13
86 -21 135 -9 50 -17 104 -20 120 -2 17 -9 53 -14 80 -5 28 -11 61 -14 75 -5
33 -37 200 -42 225 -3 11 -9 40 -14 65 -10 46 -38 172 -45 200 -8 34 -27 116
-30 132 -8 36 -58 217 -95 343 -72 240 -170 507 -251 680 -18 39 -33 72 -34
75 -2 9 -71 143 -110 215 -189 349 -457 679 -735 905 -30 25 -57 48 -60 51
-18 23 -265 184 -375 245 -116 65 -274 140 -365 174 -19 7 -48 19 -65 26 -156
67 -596 187 -795 218 -19 3 -73 12 -120 20 -47 8 -107 17 -133 21 -27 3 -57 8
-67 10 -11 2 -47 6 -82 9 -35 4 -73 8 -86 11 -13 2 -58 7 -100 10 -42 4 -93 8
-112 10 -19 2 -87 7 -150 10 -63 4 -135 10 -160 13 -25 2 -1297 6 -2827 9
l-2783 4 0 -15001z"/>
</g>
</svg>
