<svg id="Layer_1" data-name="Layer 1" xmlns="http://www.w3.org/2000/svg" viewBox="0 0 2165.4 2142.94"><defs><style>.cls-1{fill:#feda00;}.cls-1,.cls-2,.cls-3{fill-rule:evenodd;}.cls-2{fill:#008a49;}.cls-3{fill:none;}</style></defs><path class="cls-1" d="M1122,346V190c0-21.89,3.61-50.14-1-70v-7c-.83-2.29-3-3.13-4-6-18.37-4.69-46.92-3-70-3-7.49,0-22.68,2.27-28-1H192c-2.15-1.23-2.63-7.84-4-10-5-7.79-11.16-16-18-22C146.18,50.2,97.46,58.91,81,81c-32.11,43.09-5.62,110.17,50,104,8.84,3.87,23.39-.74,31-5,13.79-7.71,23.46-21.85,30-37h892c0,92.75,1.22,193.56,1,276l9,9c10.27,0,10.18.19,19,0,2.58-2.74,6.69-5.1,8-9,1.59-4.73-.44-12.74,0-15C1124.25,387.3,1122,364.53,1122,346ZM168,137c-5.41,13.25-17.12,22.24-32,26-26.23,6.62-52-25.53-44-52,3.39-11.18,14.44-21.93,25-26,3.19-1.23,5.67-.45,8-2C152.59,82.46,180.39,106.65,168,137Z" transform="translate(-66.4 -58.51)"/><path class="cls-2" d="M2203,69c-7.53-5-14.73-6.39-25-9-10-2.54-24.46-1.8-34,2-19.24,7.67-30.76,22.16-39,41H1431l-179,1h-49c-7.3,0-16.42-1-21,2-15.1,9.71-2.53,46.28-7,67-4.64,21.49-1,55.08-1,79v71c0,11.57-1.1,26.13,1,36v58c1,3.4,4.23,6.2,6,9,5.7,1.58,15.51,4.82,21,1,5.34-1.07,6.27-4.46,10-7,3.81-90.15,1.06-185.14,1-277h892c2.34,1.31,2.56,7.62,4,10,4.65,7.69,12.81,17.81,20,23,27.35,19.74,71.21,10.58,88-12a84.92,84.92,0,0,0,12-23C2239.08,110,2220,80.32,2203,69Zm-23,92c-30.56,11.54-62.22-20.67-51-52,5.69-15.88,15.62-16.52,28-25,22.72-.5,35.65,4.62,44,18C2216.08,126.16,2198.6,154,2180,161Z" transform="translate(-66.4 -58.51)"/><path class="cls-3" d="M491,196c1,.8.27.35,2,1C492,196.2,492.73,196.65,491,196Z" transform="translate(-66.4 -58.51)"/><path class="cls-1" d="M904,300c0-25,2.32-43.72-7-58-20.11-4.94-50.42-2-74-2l-137,1-41-1c-6.83.12-15.47,1.57-22,0-4.72-1.14-13.31,1-15,0H554c-2.58-1.95-3.23-10.15-5-13-4-6.45-10.9-15.57-17-20-39.5-28.71-89.13-5.51-102,34-12,36.69,16,70.84,44,80,37,12.13,74.3-17,80-43H865V386c0,8.63-2.28,35.71,1,41-.15,10.11,5.59,14.84,13,17,4.36,1.27,11.86-1.12,12-1,5.19-1,6.45-3.64,10-6,3.87-15.68,3-34,3-55Zm-403-2c-25.5,7.17-44.38-17.12-49-32,.33-2.33.67-4.67,1-7,0-18.51,12.95-37.88,33-39v-2c2.94,1,10.9-.59,13,0,8.11,2.3,20.39,9.67,25,16C542.26,259.06,526.81,290.74,501,298Z" transform="translate(-66.4 -58.51)"/><path class="cls-2" d="M1787,196c-21.63,6.44-36,22.7-44,43H1493c-22.71,0-51.27-3.44-72,1-7,1.5-14.47-1.39-19,2-12.48,4.39-9,27.42-9,44V390c0,12.13-1.36,37.77,2,43a11.17,11.17,0,0,0,8,9c3.71,2.85,15.4,3,19,0,3.84-1.36,5-3.95,8-6,5-43.63,2.15-105.31,2-158h311c2.17,1.52,7.65,16.74,10,20,9.14,12.67,24.3,20.84,42,25,33.47,7.86,62-21.08,70-40C1885.56,234.28,1836.92,181.13,1787,196Zm25,102c-28.45,7.19-54.19-23.95-46-51,3-9.89,12.91-21.09,22-25,3.62-1.56,7.93-1.06,11-3C1854.32,217.83,1858.25,286.32,1812,298Z" transform="translate(-66.4 -58.51)"/><path class="cls-1" d="M443,942c-37-4.26-80.15-1.09-119-1-.4-2-.25-1.93-1-3V577c1.63-2.89,9.06-3.21,12-5,6.67-4,15.4-10.81,20-17,6-8,10.81-19.68,13-31,.56-2.87-2.56-8.33-2-11l2-2c1.33-5.35-2.68-13.44-4-17-7.47-20.23-20.94-33.59-41-41-12.07-4.45-30.18-2.06-40,2-19.29,8-32.11,18.94-40,38-14.82,35.79,13.09,76.26,41,83V767c0,5.09-1.07,13.66,1,17V921c0,14.68-3.86,42.84,3,52,4.82,6.43,15.63,6,27,6H423c6.69,0,15.18.9,19-2a10.1,10.1,0,0,0,7-7C456.81,959.28,446,947.93,443,942ZM309,555c-27.25,6.89-52.3-27.71-43-53,3.39-9.22,12.36-19,21-23,4-1.86,8.55-1.68,12-4,30-.55,56.33,28.3,41,58C334.39,543.88,322.21,551.66,309,555Z" transform="translate(-66.4 -58.51)"/><path class="cls-2" d="M2026,459l-17-7-28-1c-27.2,7-62.89,38.05-51,79,6.19,21.31,22.18,41.62,44,47V940c-25.41-.06-52.09,1-76,1-12.21,0-33-3.36-43,1l-7,6c-1.38,5.44-4.12,16.91,0,22,4.2,11.82,25.29,10,41,10l112-1c3.48-1.13,6.09-5,9-7,3-13.15,2-32.74,2-49q.49-26.49,1-53V577l18-9c10.89-7.75,20.7-21.85,25-36C2065.87,499.51,2044.39,470.46,2026,459Zm-22,95c-28.51,8.93-57.38-20.74-50-48,2.68-9.91,10.15-20.1,18-25,3.86-2.41,9.23-2.47,13-5,25.51-.56,38.89,7.76,46,25C2041.41,526.25,2020.88,548.71,2004,554Z" transform="translate(-66.4 -58.51)"/><path class="cls-3" d="M1481,508a5.3,5.3,0,0,0,6,0Z" transform="translate(-66.4 -58.51)"/><path class="cls-3" d="M1821,906c.07,2.53.12,3.72,1,5C1821.93,908.47,1821.88,907.28,1821,906Z" transform="translate(-66.4 -58.51)"/><path class="cls-1" d="M458,1150c-.77-5.83-3.89-9.52-9-11-4.32-3-13.8-2-21-2H378c-64.38,0-140.82-.85-197,1-2.67,2.77-5.59,3.82-7,8-.8,1.19-1.22,4.81-2,6v304c-.84,1.48-18.22,9.07-21,11-9.21,6.39-17.9,19.7-22,31-11.29,31.09,8.38,63.46,27,75,5.49,3.4,12.66,6.08,19,8,36.84,11.13,67-17.77,76-39,2.32-5.5,2-11.8,3-16,1.8-7.51,1.54-19.81-1-27-7.51-21.29-23-34-43-43V1173c57.85.1,117.74,1,174,1h50l13,1c3.31-.72,6.34-4.31,9-6C457.4,1163.73,460.72,1153.9,458,1150ZM228,1533c-5.45,13.53-18.33,21.51-34,25-24.18,5.38-50.09-26.63-41-53,3.06-8.87,12.77-19.22,21-23,3.31-1.52,7.14-1.17,10-3C213.21,1478.39,240.89,1501,228,1533Z" transform="translate(-66.4 -58.51)"/><path class="cls-2" d="M2169,1501c-6.65-22.36-22.9-35.87-43-45q-.49-154-1-308c-3.53-3.65-5.64-9.24-11-11H1849c-3.54,3.53-7.27,4.42-9,10-6.44,9.13,1.34,20.74,5,26,23.49,5.83,57,3,85,3h157v280c-.7,1.25-18.37,9.09-21,11-10.06,7.3-19.49,22.47-23,36-8.59,33.12,12.2,60,30,71C2119.83,1603,2185.8,1557.46,2169,1501Zm-25,31c-5.13,13.85-17.53,22.33-33,26-25.48,6-52.26-26.13-43-53,3-8.66,11.64-17.49,19-22l11-4c8.41-.18,17-.47,23,2C2136.39,1487.31,2152.72,1508.45,2144,1532Z" transform="translate(-66.4 -58.51)"/><path class="cls-2" d="M1099,511c-28.22-34.86-88-70.78-151-45a164.84,164.84,0,0,0-35,20l-18,18-1,3c21.32,12.5,36,35,49,56,5.18,8.35,12,16.7,12,30a29.18,29.18,0,0,0-4,6c-4.46,1.16-8.18,3.1-12,0-7.69-2.83-14.28-24.51-19-32-12.67-20.13-32.61-38.58-53-51-19.68-12-68.13-12.09-94-5-56.37,15.44-106.44,41.59-106,113-12-.15-24.43-.85-34,2-38.41,11.42-67.32,48.26-67,98,11.57-1.41,27.41-6.17,42-3,47.84,10.39,77.59,32.81,95,73,16,37,10,87.91-14,111-6.54-.13-8.14-1.71-12-4-4.06-22.32,17.84-37.59,12-65l-3-21c-9.37-29.48-26.86-51.07-54-63-10.92-4.8-30.1-12.23-49-8-11.32,2.53-25,4.52-34,10-9.66,5.89-18.23,15-25,24s-15.82,17.06-22,27c-19.92,32.07-38.55,97.14-24,150,7.61,27.66,17.39,53.14,32,74,5.36,7.65,12.89,14.13,18,22,8.68-.32,16.88-2.23,25-4,11.85-2.58,28.06,2.13,36,5,30.51,11,53,27.91,67,55,14.61,28.19,9.52,64.62-5,88-5,8.11-5.4,13-19,13-2.49-2.65-4.57-5.16-7-8,2.92-19.59,23.14-32.1,17-60-7.82-35.5-27.31-54.38-59-66-15.82-5.8-41.5-4.84-55,3-14.61,8.49-22.91,21.83-30,38-23.31,53.15-17.53,114.73,7,162,5.92,11.41,11.9,25.85,22,33-1.58,11.68-4.11,25.68-7,38v19c0,28.93,4,52.62,11,74,21.24,64.68,54.85,120.82,120,141,16.77,5.19,30.39,1.65,48,1,.2,61.26,35.48,104.14,74,128,17.46,10.81,47.48,19.28,72,9,36.3-15.22,81.57-72.43,59-129-12.45-31.19-34.46-51.06-56-73,.21-3.41.48-5.11,2-7,1.4-3.84,3.44-3.61,6-6,18,.39,34.59,22.73,43,34,11.49,15.41,22.64,31,29,52,18.37,60.49-21.17,118-55,140,3.42,13.46,11.85,24.16,19,34,22.77,31.34,78,66.06,137,47,41.07-13.28,70.21-40.51,86-79,5.69-13.86,7-29.49,7-49V572C1116.81,548.5,1111.84,526.86,1099,511ZM655,983c-32.35-11.87-54.73-30.2-70-59-3.47-6.55-18-36.35-13-46-.2-10.36,1.33-12.61,5-18,2-.4,1.93-.25,3-1,2.13.8,2.16-.14,4,1,12.87,1.61,8.72,14.92,12,26,5.27,17.81,12.24,32,22,45,10.87,14.46,32,25.9,51,32,18.35,5.9,25.25-.4,37,14-.3,6.69-2.44,8-5,12C684.77,992.76,668.05,987.79,655,983Zm94,387c-12,2.19-20.33-6.14-34-3-21.42,4.92-39.47,15.51-45,36-3.45,12.78,8.91,23.2,3,33-1.51,4.28-4.13,4.33-7,7-20.25-.42-23.75-34-17-52,6.17-16.49,20.09-31.23,35-39,7.57-4,18.69-4.25,24-8,24.57-.1,32.43.6,46,11C754.1,1364,752.22,1365.21,749,1370Zm116,263c-17.85,18.26-34.58,16.27-59,6-23.57-9.92-61.46-39.53-47-79,1.65-4.51,5.51-8.31,8-12,2-.4,1.93-.25,3-1,3.84.09,5.93.34,8,2l5,5c-.1,9.45-4.88,17.41-3,26,4.26,19.52,19.37,32,36,39,5.55,2.34,17.53,6.59,26,4C853.13,1619.6,864.57,1612.32,865,1633Zm-11-339a136.36,136.36,0,0,1-10,25c-4.46,1.16-8.18,3.1-12,0-2.7-.92-2.93-1.72-5-3-3.69-17.49,11.23-35.25,4-57-8.75-26.35-32.12-40.56-60-48-14.52-3.87-42.71.43-50,7-9.34-.08-9.7-3.35-14-8-.07-4.42,0-6.84,2-9,4.62-12.62,25.28-8.7,36-15,52.48-.18,86.7,19.9,103,56C853.86,1255,859.2,1275,854,1294ZM814,730c-23.31-8.48-33.64-18-49-34,.13-6.54,1.71-8.14,4-12,2.13-.51,3.62-.89,5-2,10.68,1,13.34,7.47,20,12,9,6.15,21,11.41,32,15,8.41,2.75,21.79,3.68,28,5,16.61,3.53,38.46-1.32,50-5,30.12-9.6,55.68-19.13,72-42,6-8.42,9.85-20.13,15-29,2.13-.51,3.62-.89,5-2,2.86.36,4.32.66,6,2,8.9,3.24,7.32,14.82,4,23-6.78,16.71-20.21,33.13-34,43C937.17,728.93,869.65,750.23,814,730Zm109,420-6-5c-3.35-17.57,12-18.21,25-25,17.33-9.08,37.6-22.79,49-38a155.59,155.59,0,0,0,20-35c8.06-20,5.26-51.32-2-69-17.71-43.16-53.3-65.26-100-79-.94-3.26-3.58-8.25-1-12,1.08-3.08,2.44-3.61,4-6,2-.4,1.93-.25,3-1,18.58.43,32.26,7.69,45,14,38,18.82,64.65,46.72,77,91,2.86,10.23,4.33,26.22,2,37-2.3,10.62-1,18.75-4,28-11,34.18-32.36,57.31-59,76C962.51,1135.47,944.68,1150,923,1150Zm39,158c3.39-5.46,11.28-13,17-16,3.9-2.06,8.55-1.68,12-4,18,0,30.1,1.74,41,8,1.16,4.46,3.1,8.18,0,12-5.61,14.61-31.82-3.71-43,6-26.88,9.3-5.85,87.64,28,62,9.14-.62,22,4.14,15,14-6.28,17.75-41.63,13.58-54,5C957.54,1380.8,944.7,1335.89,962,1308Zm68,461c-13.07,8.59-30.22,18.73-46,7-.24-3.41-.83-4.34,0-6,1.4-11.91,15.69-11,25-15,12.86-5.56,24.57-17,30-30,3.58-8.59,4.56-25,2-36-.89-3.82-3.44-11-1-15,1.51-4.28,4.13-4.33,7-7h7l6,5C1071.27,1718.36,1062.08,1747.91,1030,1769Z" transform="translate(-66.4 -58.51)"/><path class="cls-1" d="M1765,1075c-41.81-19.55-92.07,14.85-105,46-9.42,22.69-1.68,63.48,14,76-3.13,5.71-5.66,7.82-10,12-18.56-.26-31.15-36-33-54-.29-2.81,1.79-9.48,1-14-.93-5.36,2-11,4-17,12.84-38.35,33.66-59,74-73,13.18-4.59,43.77-7.4,54,0,9.53-.58,12.69-10.07,17-16,10.87-15,19.51-28.85,27-48,34.29-87.63,6.27-180.13-55-230-7.5-6.1-18.42-6.94-29-10-60.65-17.57-102.47,30-114,73-3.56,13.26-2.58,37.82,2,50,3.45,9.16,9.74,15.26,10,28-25,24-31.3-24.91-36-45-1-4-3.23-10.22-2-16,11-51.68,21.18-75.9,60-100,8.28-5.14,22.89-13.28,32-14,12.08-1,43.14-5.59,53,1h2c.1-59-39.53-104.22-102-99,1.51-52.92-27.45-82.53-65-102-9.07-4.7-20.33-7.9-30-11-2.85-.91-8.81.55-10,0-15.53-7.19-69.5-7.18-86,0-20.34,8.85-44.82,31.58-57,49-7.22,10.33-9.67,23.22-17,34-1.79,2.63-5.75,3.77-8,6-9.34-.08-9.7-3.35-14-8,.28-13.89,7.48-23.06,13-32,12.86-20.81,27.63-40.88,48-54-3.2-9.47-13.57-15.48-21-21-29.64-22.05-73.71-36.9-119-22-43.88,14.44-73.23,49.22-86,95-5.88,21.09,3.87,51.54-1,74-2.36,10.9,2,26.51,0,36-3.38,15.91-1,38.23-1,56v713c0,66.86,1,133.92,1,197,0,42.47-2.89,86.73,13,113,25.31,41.85,69.68,74.67,130,66,16.83-2.42,34.36-5.59,48-14,16.22-10,33.93-24.88,44-41,4.94-7.91,6.87-19.1,13-26-2.63-9.17-16.62-12.94-22-20-13.42-17.59-25.11-35.43-34-58q-.49-7-1-14c-1.82-6.51-4.29-22.5-2-32,9.2-38.2,24.51-64.6,48-88,6.37-6.34,35.66-31.75,36-2-24.78,23.77-49.88,48.52-59,85-5.4,21.62,1.23,44.85,8,60,14,31.24,37.19,52.6,74,61,13.41,3.06,21.12-3,31-5,38.44-7.9,72.48-50.31,86-87a154.2,154.2,0,0,0,8-33c.7-4.94-1.37-11.33,2-17,2.52-2,19.51,3.06,30,1,13.82-2.72,33.38-6.54,47-15,32.67-20.29,58.27-51.91,76-87,7.29-14.43,9.51-28.76,15-45,6.36-18.83,13.21-46,8-65-1.31-4.78,1.59-8.86,2-11,1.5-7.87-3.55-44-7-48,2-8.24,9.91-13.51,14-20a219.6,219.6,0,0,0,18-36C1824.76,1198.13,1815.4,1098.57,1765,1075ZM1594,974c3.25-7.8,10.81-4.81,20-7,14.71-3.51,30.85-7.3,42-15,16-11,31.51-27.62,40-46,3.79-8.21,5-35,10-41,1.31-3.28,2.8-2.91,5-5h8a25,25,0,0,0,5,4c3.71,18.09-1.94,35.86-7,48-14.45,34.64-38.42,56.75-73,71-8.49,3.5-32.92,10-44,6C1594.36,987,1588.3,980.52,1594,974Zm-285,806c-14.29,3.31-25.47-2.43-36-8-30.18-16-57.87-63.62-31-104,2-.4,1.93-.25,3-1,3.41.21,5.11.48,7,2l5,4c.63,6.94-.48,14.34-2,21-1.37,6-.09,16.58,1,21,9,36.67,28.76,33.54,56,50,.33,3.33.67,6.67,1,10A25,25,0,0,0,1309,1780Zm19-393c-6.17,8.32-18.19,13.31-30,16-5.15,1.17-10.61-1-14-2-13.59-3.88-26-8.68-16-24,12.3-2.1,25,6.9,36,1,12.47-6.69,22.42-37.53,13-56-1.69-3.31-5.83-5.86-8-9-14.36-3.25-23.52.85-38,1-3.72-3.68-10.78-8.75-6-15,3.33-9.51,15-6.2,23-11C1347.44,1286.85,1356.51,1348.6,1328,1387Zm60-491c-3.51,9-21,9.3-30,13-19,7.74-40.45,20.6-52,36-7.74,10.32-15.22,22-20,35-22,60.17,20.46,110.14,54,132,14.82,9.66,29.34,11.7,41,25-.28,8.6-3.61,8.94-8,13-18-.54-34.93-13.09-47-21-31.7-20.77-51.71-44.39-64-85-3.68-12.15-6.83-35.13-3-51,2.24-9.26,4.34-19.51,8-28,14.66-34,43.09-60.28,77-75,7.44-3.23,15.61-5.64,23-8,3.48-1.11,7.35-.33,10-2,3.41.21,5.11.48,7,2C1389,883.58,1392.76,891.2,1388,896Zm-49-183c-7.62-4.71-14.08-11.79-21-17-11.44-8.62-21.25-21.92-27-36-1.94-4.75-3.47-14,0-18,1.31-3.28,2.8-2.91,5-5,17.26.45,15.16,15.49,22,26,4.64,7.13,13.16,17,20,22,25.89,18.83,79.81,39.06,127,26a121.31,121.31,0,0,0,39-19c4.42-3.15,9.72-4.76,13-9,8.49,0,9.43,1.92,14,5,.22,22.67-23,30.23-39,37a199.12,199.12,0,0,1-29,10C1420.87,745.48,1363.13,727.93,1339,713Zm104,543c8.27-30.28,31-50.53,58-62,6.26-2.66,13.81-4.34,20-6,4.91-1.32,11.16.28,15-2,19.38-.43,34.2,3.08,46,10,4.66,2.73,12,9.15,6,16-1.53,3.89-4.11,3.7-7,6-8.76-.47-13.12-5-20-7-4.56-1.33-11.12-1.39-15-2-3.27-.51-12,1.32-15,2-31.75,7.24-56.11,18.6-65,48-5.88,19.43,9.49,47.44,4,55-1.32,4.19-8.42,9.09-14,5C1444.92,1315,1438.06,1274.1,1443,1256Zm93,342c-9.34,22.4-32.09,38.15-56,46-22,7.21-38.16,0-48-12v-6l6-7c11.15.19,17.85,6.94,30,4,20.78-5,42-17.31,48-37,5.21-17-7.9-24.7,4-38,4.87-.14,8.6-.2,11,2C1542.94,1556.05,1541.07,1585.84,1536,1598Zm99-155c-2.58,1.1-6.92-2.37-10-4-3.22-13.89,5.12-21.16,2-35-4.42-19.66-20.1-30-42-36-8.34-2.29-22.7-1.22-28,3-9.34-.08-9.7-3.35-14-8,0-2.91,0-5.45,1-7,3.23-9.39,13.25-7.16,21-12,43.23-.55,69.5,15.41,82,45C1654,1405.55,1652.35,1437.71,1635,1443Z" transform="translate(-66.4 -58.51)"/><path class="cls-1" d="M904,1872c0-13.94,2.7-37.09-1-46-1.47-3.53-5-5.93-7-9-7.35-1.11-17-3.82-23,1-11,7.32-8,26.29-8,45v118H554c-2.32-1.61-7.57-16.63-10-20-8.1-11.23-22.79-20-38-24-32.55-8.58-57,12.47-68,30-4.71,7.48-11.6,20.33-8,30l-2-1c-.42,46.56,42.76,85.74,93,63,16.48-7.46,26.46-23.42,34-40H894c2.92-3,6.47-4.48,8-9,4.54-6.94,2-36.48,2-48ZM504,2039c-26.46,8.81-58.24-18.56-51-46,3.09-11.72,11.22-22.91,21-28l12-4C539.85,1959.88,546.2,2025,504,2039Z" transform="translate(-66.4 -58.51)"/><path class="cls-2" d="M1791,1937c-24.27,6.22-39.32,22-48,44H1432V1827c-3.79-4-4.66-8.29-11-10-4.56-3.46-16.18-2.23-20,1-11.4,7.62-8,31.31-8,50,0,46.56-.71,100.36,1,142a56.52,56.52,0,0,1,7,8c7.74.82,22,.87,24,2h318l7,16c8.21,12.56,23.59,23.74,40,28,36,9.36,65.89-17.42,75-39C1884.68,1978.37,1839.94,1924.45,1791,1937Zm26,102c-30,10.69-59.46-20.85-51-50,2.56-8.82,11-18.41,18-23,3.8-2.49,9.24-2.47,13-5,24.36-.53,38.1,8.51,45,25C1852.38,2010.79,1833.07,2033.28,1817,2039Z" transform="translate(-66.4 -58.51)"/><path class="cls-1" d="M1122,2061V1862c0-8.32.94-19.4-3-24-2.74-7.78-13.16-7.47-24-7a115.39,115.39,0,0,1-10,9c0,82.11-1,184.37-1,277H192c-2.92-1.72-3.22-9.82-5-13a78.81,78.81,0,0,0-12-15c-28-26.13-71.9-19-95,6-6.06,6.56-8,15.24-11,25-14.69,48.25,35.61,96.55,84,77,19.29-7.79,30.7-22,39-41H828c23.08,0,55.29,3.44,76-1h207c4-1.3,6.66-5.79,10-8C1122.9,2120.25,1122,2089.39,1122,2061Zm-955,92c-5.06,11.54-17.52,19.75-31,23-26.1,6.29-52.41-24.88-44-51,4.08-12.69,14.11-22.08,26-27,2.81-1.16,6.69-.59,9-2C155.54,2095.85,180.45,2122.34,167,2153Z" transform="translate(-66.4 -58.51)"/><path class="cls-2" d="M2227,2115c-9-23.91-36.8-52-75-42-21.72,5.7-41.53,22.26-47,44H1213V1842c-9.62-10.28-9.69-11.6-28-11l-9,8c-1.84,16.12-1,36.24-1,54v21c-4.58,21.32-1,50.68-1,74q.49,78.49,1,157c3.53,3.54,4.42,7.27,10,9,8.53,5.27,39.56-1,52,1,14.36,2.32,41.65,1,61,1h807c1.36.8,8.09,17.37,10,20,18.14,25,61.87,33,91,12,7.74-5.58,13.25-14.29,18-23,3.07-5.63,5.33-12.71,7-20C2233.49,2134.14,2229.51,2121.69,2227,2115Zm-23,36c-5.3,12.94-17.14,21.43-32,25-25.79,6.19-52-24.57-44-50,3.37-10.7,10.73-20.15,20-25l11-4c9.8-.22,18.19,0,25,3C2197.9,2106.1,2213,2129.08,2204,2151Z" transform="translate(-66.4 -58.51)"/></svg>