<svg width="25136" height="6315" viewBox="0 0 25136 6315" fill="none" xmlns="http://www.w3.org/2000/svg">
<path d="M4600 1428V4428H4100C3700 4428 3600 4428 3600 3128V1628C3600 1528 3524.32 1428 3400 1428H4600Z" fill="#202020"/>
<path d="M3050.87 5440.43C3050.85 5440.19 3050.88 5440.2 3051.01 5441.2C3050.94 5441.03 3050.88 5440.64 3050.87 5440.43Z" fill="#202020"/>
<path d="M6271.5 4137C6271.5 4140.33 6269 4179.5 6264 4254.5H5565.84H5357.55H5279C5289.1 4289.85 5303.87 4321.16 5323.32 4348.43C5342.39 4375.17 5365.95 4398.02 5394 4417C5417.6 4431.83 5443.51 4443.66 5471.74 4452.5C5513.3 4465.5 5559.89 4472 5611.5 4472C5676.5 4472 5732.33 4462.83 5779 4444.5C5827.33 4426.17 5875.67 4396.17 5924 4354.5L6174 4614.5C6042.33 4761.17 5849.83 4834.5 5596.5 4834.5C5476.62 4834.5 5367.73 4817.3 5269.83 4782.91C5238.42 4771.88 5208.15 4759.07 5179 4744.5C5106.86 4708.43 5044.36 4663.93 4991.5 4611C4956.42 4575.88 4925.59 4537.05 4899 4494.5C4834 4387.83 4801.5 4267 4801.5 4132C4801.5 3998.67 4833.17 3879.5 4896.5 3774.5C4961.5 3667.83 5050.67 3584.5 5164 3524.5C5277.33 3464.5 5404.83 3434.5 5546.5 3434.5C5558.01 3434.5 5569.42 3434.71 5580.75 3435.12C5650.07 3437.64 5715.99 3447.87 5778.51 3465.82C5825.6 3479.33 5870.77 3497.23 5914 3519.5C6024 3574.5 6110.67 3655.33 6174 3762C6239 3867 6271.5 3992 6271.5 4137ZM5549 3772C5538.49 3772 5528.21 3772.43 5518.18 3773.28C5458.22 3778.4 5406.83 3798.81 5364 3834.5C5315.67 3876.17 5284.83 3932.83 5271.5 4004.5H5448.65H5659.75H5826.5C5813.17 3932.83 5781.5 3876.17 5731.5 3834.5C5725.45 3829.28 5719.2 3824.39 5712.75 3819.82C5667.73 3787.94 5613.15 3772 5549 3772Z" fill="#202020"/>
<path d="M7915.5 3457V4812H7463V4667C7413 4722 7353 4763.67 7283 4792C7213 4820.33 7138.84 4834.5 7060.5 4834.5C6885.5 4834.5 6745.5 4782.83 6640.5 4679.5C6537.17 4576.17 6485.5 4421.17 6485.5 4214.5V3457H6960.5V4137C6960.5 4238.67 6979.67 4312.83 7018 4359.5C7056.34 4406.17 7112.17 4429.5 7185.5 4429.5C7260.5 4429.5 7321.34 4403.67 7368 4352C7416.34 4298.67 7440.5 4217.83 7440.5 4109.5V3457H7915.5Z" fill="#202020"/>
<path d="M8673.96 3619.5C8722.29 3557.83 8784.79 3512 8861.46 3482C8939.79 3450.33 9028.96 3434.5 9128.96 3434.5V3862C9085.63 3857 9049.79 3854.5 9021.46 3854.5C8919.79 3854.5 8839.79 3882 8781.46 3937C8724.79 3992 8696.46 4076.17 8696.46 4189.5V4812H8221.46V3457H8673.96V3619.5Z" fill="#202020"/>
<path d="M10407.7 4472H9667.67L9530.17 4812H9025.17L9797.67 3062H10285.2L11060.2 4812H10545.2L10407.7 4472ZM10262.7 4107L10037.7 3547L9812.67 4107H10262.7Z" fill="#202020"/>
<path d="M11178 2957H11653V4812H11178V2957Z" fill="#202020"/>
<path d="M12814.2 3434.5C12937.5 3434.5 13049.2 3462.83 13149.2 3519.5C13250.9 3576.17 13330.9 3657.83 13389.2 3764.5C13449.2 3869.5 13479.2 3992 13479.2 4132C13479.2 4272 13449.2 4395.33 13389.2 4502C13330.9 4608.67 13250.9 4691.17 13149.2 4749.5C13049.2 4806.17 12937.5 4834.5 12814.2 4834.5C12635.9 4834.5 12502.5 4782 12414.2 4677V4812H11961.7V2957H12436.7V3574.5C12528.4 3481.17 12654.2 3434.5 12814.2 3434.5ZM12714.2 4457C12797.5 4457 12865.9 4428.67 12919.2 4372C12972.5 4313.67 12999.2 4233.67 12999.2 4132C12999.2 4032 12972.5 3953.67 12919.2 3897C12865.9 3840.33 12797.5 3812 12714.2 3812C12630.9 3812 12562.5 3840.33 12509.2 3897C12455.9 3953.67 12429.2 4032 12429.2 4132C12429.2 4233.67 12455.9 4313.67 12509.2 4372C12562.5 4428.67 12630.9 4457 12714.2 4457Z" fill="#202020"/>
<path d="M15085 4137C15085 4140.33 15082.5 4179.5 15077.5 4254.5H14092.5C14112.5 4324.5 14150.8 4378.67 14207.5 4417C14265.8 4453.67 14338.3 4472 14425 4472C14490 4472 14545.8 4462.83 14592.5 4444.5C14640.8 4426.17 14689.1 4396.17 14737.5 4354.5L14987.5 4614.5C14855.8 4761.17 14663.3 4834.5 14410 4834.5C14251.6 4834.5 14112.5 4804.5 13992.5 4744.5C13872.5 4684.5 13779.1 4601.17 13712.5 4494.5C13647.5 4387.83 13615 4267 13615 4132C13615 3998.67 13646.6 3879.5 13710 3774.5C13775 3667.83 13864.1 3584.5 13977.5 3524.5C14090.8 3464.5 14218.3 3434.5 14360 3434.5C14495 3434.5 14617.5 3462.83 14727.5 3519.5C14837.5 3574.5 14924.1 3655.33 14987.5 3762C15052.5 3867 15085 3992 15085 4137ZM14362.5 3772C14289.1 3772 14227.5 3792.83 14177.5 3834.5C14129.1 3876.17 14098.3 3932.83 14085 4004.5H14640C14626.6 3932.83 14595 3876.17 14545 3834.5C14496.6 3792.83 14435.8 3772 14362.5 3772Z" fill="#202020"/>
<path d="M15756.5 3619.5C15804.8 3557.83 15867.3 3512 15944 3482C16022.3 3450.33 16111.5 3434.5 16211.5 3434.5V3862C16168.1 3857 16132.3 3854.5 16104 3854.5C16002.3 3854.5 15922.3 3882 15864 3937C15807.3 3992 15779 4076.17 15779 4189.5V4812H15304V3457H15756.5V3619.5Z" fill="#202020"/>
<path d="M17384 4757C17344 4782 17294.8 4801.17 17236.5 4814.5C17179.8 4827.83 17119 4834.5 17054 4834.5C16877.3 4834.5 16741.5 4791.17 16646.5 4704.5C16551.5 4617.83 16504 4488.67 16504 4317V3862H16306.5V3507H16504V3154.5H16979V3507H17289V3862H16979V4312C16979 4360.33 16991.5 4398.67 17016.5 4427C17043.2 4453.67 17078.2 4467 17121.5 4467C17176.5 4467 17224.8 4452.83 17266.5 4424.5L17384 4757Z" fill="#202020"/>
<path d="M18144.7 3434.5C18369.7 3434.5 18541.3 3486.17 18659.7 3589.5C18778 3691.17 18837.2 3847.83 18837.2 4059.5V4812H18394.7V4637C18326.3 4768.67 18193 4834.5 17994.7 4834.5C17889.7 4834.5 17798.8 4816.17 17722.2 4779.5C17645.5 4742.83 17587.2 4693.67 17547.2 4632C17508.8 4568.67 17489.7 4497 17489.7 4417C17489.7 4288.67 17538.8 4189.5 17637.2 4119.5C17735.5 4047.83 17887.2 4012 18092.2 4012H18362.2C18353.8 3868.67 18258 3797 18074.7 3797C18009.7 3797 17943.8 3807.83 17877.2 3829.5C17810.5 3849.5 17753.8 3877.83 17707.2 3914.5L17547.2 3592C17622.2 3542 17713 3503.67 17819.7 3477C17928 3448.67 18036.3 3434.5 18144.7 3434.5ZM18127.2 4534.5C18182.2 4534.5 18230.5 4521.17 18272.2 4494.5C18313.8 4467.83 18343.8 4428.67 18362.2 4377V4259.5H18157.2C18018.8 4259.5 17949.7 4305.33 17949.7 4397C17949.7 4438.67 17965.5 4472 17997.2 4497C18028.8 4522 18072.2 4534.5 18127.2 4534.5Z" fill="#202020"/>
<path d="M19532 3454.5H18994.5V3062H20562V3454.5H20027V4812H19532V3454.5Z" fill="#202020"/>
<path d="M21972.2 4137C21972.2 4140.33 21969.7 4179.5 21964.7 4254.5H20979.7C20999.7 4324.5 21038 4378.67 21094.7 4417C21153 4453.67 21225.5 4472 21312.2 4472C21377.2 4472 21433 4462.83 21479.7 4444.5C21528 4426.17 21576.3 4396.17 21624.7 4354.5L21874.7 4614.5C21743 4761.17 21550.5 4834.5 21297.2 4834.5C21138.8 4834.5 20999.7 4804.5 20879.7 4744.5C20759.7 4684.5 20666.3 4601.17 20599.7 4494.5C20534.7 4387.83 20502.2 4267 20502.2 4132C20502.2 3998.67 20533.8 3879.5 20597.2 3774.5C20662.2 3667.83 20751.3 3584.5 20864.7 3524.5C20978 3464.5 21105.5 3434.5 21247.2 3434.5C21382.2 3434.5 21504.7 3462.83 21614.7 3519.5C21724.7 3574.5 21811.3 3655.33 21874.7 3762C21939.7 3867 21972.2 3992 21972.2 4137ZM21249.7 3772C21176.3 3772 21114.7 3792.83 21064.7 3834.5C21016.3 3876.17 20985.5 3932.83 20972.2 4004.5H21527.2C21513.8 3932.83 21482.2 3876.17 21432.2 3834.5C21383.8 3792.83 21323 3772 21249.7 3772Z" fill="#202020"/>
<path d="M22883.7 4834.5C22733.7 4834.5 22599.5 4804.5 22481.2 4744.5C22362.9 4684.5 22270.4 4601.17 22203.7 4494.5C22138.7 4387.83 22106.2 4267 22106.2 4132C22106.2 3997 22138.7 3877 22203.7 3772C22270.4 3665.33 22362.9 3582.83 22481.2 3524.5C22599.5 3464.5 22733.7 3434.5 22883.7 3434.5C23037 3434.5 23169.5 3467.83 23281.2 3534.5C23392.9 3599.5 23472 3690.33 23518.7 3807L23151.2 3994.5C23089.5 3872.83 22999.5 3812 22881.2 3812C22796.2 3812 22725.4 3840.33 22668.7 3897C22613.7 3953.67 22586.2 4032 22586.2 4132C22586.2 4233.67 22613.7 4313.67 22668.7 4372C22725.4 4428.67 22796.2 4457 22881.2 4457C22999.5 4457 23089.5 4396.17 23151.2 4274.5L23518.7 4462C23472 4578.67 23392.9 4670.33 23281.2 4737C23169.5 4802 23037 4834.5 22883.7 4834.5Z" fill="#202020"/>
<path d="M24575.2 3434.5C24743.5 3434.5 24878.5 3484.5 24980.2 3584.5C25083.5 3684.5 25135.2 3835.33 25135.2 4037V4812H24660.2V4114.5C24660.2 3929.5 24586 3837 24437.7 3837C24356 3837 24290.2 3863.67 24240.2 3917C24191.8 3970.33 24167.7 4050.33 24167.7 4157V4812H23692.7V2957H24167.7V3582C24219.3 3533.67 24280.2 3497 24350.2 3472C24420.2 3447 24495.2 3434.5 24575.2 3434.5Z" fill="#202020"/>
<path d="M1700 1828H1200V4828H2400C2300 4828 2200 4728 2200 4628V3128C2200 2088 2200 1828 1700 1828Z" fill="#202020"/>
<path fill-rule="evenodd" clip-rule="evenodd" d="M0 3128C0 4729.63 1298.37 6028 2900 6028C3022.26 6028 3141.94 6018.99 3260.22 6004.3C3349.76 5990.02 3438.76 5968.24 3561.6 5937.6C3606.86 6047.16 3710.43 6119.4 3836.57 6123.23C3888.54 6124.81 3919.59 6121.72 3963.32 6100.44C4000.32 6185.21 4042.86 6251.63 4091.64 6314.6C4599.21 6099.94 4880.76 5940.01 5236.82 5616.19C5258.52 5624.08 5281.83 5628.7 5306.17 5629.44C5429.03 5633.18 5531.66 5536.59 5535.4 5413.71C5539.14 5290.82 5442.57 5188.17 5319.72 5184.44C5196.86 5180.7 5094.23 5277.28 5090.49 5400.17C5089.3 5439.42 5090.49 5468.6 5107.35 5501.16C4941.5 5652.61 4840.37 5717.26 4649.5 5839C4595.5 5758.01 4587.49 5746.97 4553.29 5699.83L4553.28 5699.82L4553.26 5699.8C4545.03 5688.45 4535.28 5675.01 4523 5658C4546.83 5635.99 4570.11 5621.36 4590.46 5608.57C4593.31 5606.79 4596.1 5605.03 4598.82 5603.3C4630.15 5621.9 4668.1 5628.75 4707.09 5629.94C4829.95 5633.68 4932.57 5537.09 4936.31 5414.2C4940.05 5291.32 4843.49 5188.67 4720.63 5184.93C4597.77 5181.19 4495.14 5277.78 4491.4 5400.66C4491.23 5406.41 4490.92 5411.74 4490.63 5416.81L4490.63 5416.82V5416.83C4489.59 5434.77 4488.75 5449.4 4494.64 5467.75C4474.31 5483.4 4454.61 5498.21 4435.45 5512.6C4383.32 5551.78 4335.2 5587.94 4289.5 5629.94L4297.29 5643.17L4299.86 5647.54L4301.83 5650.88L4303.98 5654.54L4305.22 5656.65C4372.62 5771.2 4399.02 5816.07 4480.11 5944.98C4470.08 5951 4460.72 5956.63 4451.95 5961.91C4341.28 6028.49 4323.05 6039.47 4197.5 6089.5L4178.66 6093.66C4145.11 6055.26 4131.29 6028.35 4113.43 5982.38C4144.98 5935.47 4154.52 5882.95 4156.36 5822.26C4161.58 5650.82 4026.86 5507.61 3855.46 5502.39C3686.45 5497.25 3539.08 5585.21 3530.16 5753.23C3414.37 5780.78 3321.86 5799.14 3226.29 5810.75C3119.2 5823.67 3010.57 5828 2900 5828C2891.49 5828 2882.99 5827.96 2874.5 5827.88L2859.5 5614.5C2889.24 5612.58 2915.12 5611.64 2938.93 5610.77C2996.34 5608.69 3041.65 5607.04 3099.68 5593.08C3139.03 5642.05 3199.43 5664.31 3267.14 5666.37C3390 5670.11 3492.63 5573.52 3496.37 5450.64C3500.11 5327.75 3403.54 5225.1 3280.68 5221.36C3157.82 5217.62 3055.2 5314.21 3051.46 5437.1C3051.34 5441.02 3051.14 5441.5 3051.01 5441.2C3051.09 5441.8 3051.2 5442.77 3051.35 5444.27C2959.27 5463.66 2878 5463.37 2785.57 5463.05H2785.56H2785.55H2785.54H2785.52H2785.51C2747.42 5462.91 2707.43 5462.77 2664 5464L2680 5819.17C2553.16 5808.94 2428.79 5789.94 2307.5 5762.79C2233.9 5747.65 2136.83 5719.11 2097.5 5706.74C998.21 5365.01 200 4339.72 200 3128C200 2572.96 367.481 2057.03 654.665 1628H1700C2200 1628 2400 1828 2400 3128C2400 4168 2900 4828 4100 4828H5028C4915 4772.5 4817.32 4676.32 4791.49 4628H4100C3600 4628 3400 4428 3400 3128C3400 2088 2900 1428 1700 1428H802.269H550.273C204.098 1905.65 0 2492.99 0 3128ZM5800 3128C5800 3180.4 5798.61 3232.47 5795.87 3284.18C5743.36 3270.32 5653.36 3261.52 5597 3260.5C5598.9 3218.91 5600 3170.06 5600 3128C5600 1636.83 4391.17 428 2900 428C2692.12 428 2730 459.5 2809.11 485.402C2835.75 494.123 2911.37 513.88 3000.41 528.091C3152.22 552.319 3332.81 581.141 3313.59 638.332C3300.73 676.597 3196.85 669.844 3078.32 662.138C3061.68 661.057 3044.75 659.956 3027.75 658.959C2986.36 656.532 2943.22 651.918 2900.21 647.318L2900.21 647.318L2900.21 647.318C2777.93 634.24 2656.68 621.272 2579.68 658.959C2538.8 678.96 2519.52 700.279 2492.18 730.497C2490.15 732.745 2488.14 734.939 2486.13 737.126C2473.78 750.579 2461.69 763.74 2447 787.452C2384.72 887.988 2388.89 962.443 2398.42 1026.15C2407.94 1089.87 2399.43 1205.02 2343.74 1211.57C2304.68 1216.16 2305.44 1183.71 2306.47 1139.27V1139.27L2306.47 1139.26C2306.65 1131.75 2306.83 1123.9 2306.83 1115.83C2306.83 1036.92 2231.57 884.374 2109.23 873.225C2022.12 865.285 2009.13 887.997 1982.58 934.43C1971.38 954.026 1957.76 977.847 1935.14 1005.37C1858.9 1098.12 1693.01 1194.65 1662.94 1177.05C1638.76 1162.9 1676.59 1114.63 1720.76 1058.29C1778.94 984.083 1848.1 895.863 1801.02 853.113C1753.5 809.965 1631.7 838.29 1550.54 860.146C1543.04 862.167 1535.13 864.295 1526.81 866.529C1517.7 868.971 1509.41 871.078 1500.99 873.219L1500.98 873.222L1500.97 873.225L1500.95 873.228C1465.84 882.152 1428.45 891.655 1320.62 928.321C1252.69 951.417 1160.11 1010.14 1077.42 1062.58L1077.42 1062.58C978.75 1125.16 874.517 1148.79 862.68 1122.35C840.923 1073.75 1346.64 671.258 1572.03 604.411C1646.16 582.424 1629.58 552.575 1526.81 545.885C1434.6 539.883 1330.54 553.322 1252.51 563.399C1178.84 572.912 1109.89 542.478 1114.52 526.812C1124.05 494.553 1495.7 405.129 1728.21 394.339C1734.03 394.069 1739.95 393.806 1745.96 393.54L1745.99 393.539C1884.74 387.386 2069.49 379.194 2123.56 229.145C2123.21 226.867 2124.32 223.141 2125.85 218.043L2125.85 218.041C2130.91 201.179 2140.47 169.312 2116.2 125.211C2115.85 124.576 2115.5 123.939 2115.15 123.299L2114.54 122.196L2114.48 122.094C2090.41 78.3923 2061.16 25.2707 2084.94 4.5053C2104.34 -12.4375 2144.35 21.5792 2182.24 53.7897C2197.86 67.0643 2213.11 80.0322 2226.42 88.9998C2229.94 91.3757 2233.57 93.8864 2237.37 96.5136C2302.75 141.738 2411.96 206.549 2900 228C4501.63 228 5800 1526.37 5800 3128ZM2166.35 731.946C2252.84 731.946 2322.95 661.873 2322.95 575.435C2322.95 488.996 2252.84 418.924 2166.35 418.924C2079.86 418.924 2009.75 488.996 2009.75 575.435C2009.75 661.873 2079.86 731.946 2166.35 731.946ZM3275.87 5522.02C3318.36 5523.31 3353.85 5489.91 3355.14 5447.42C3356.43 5404.92 3323.04 5369.42 3280.56 5368.13C3238.07 5366.84 3202.58 5400.24 3201.29 5442.73C3200 5485.23 3233.39 5520.72 3275.87 5522.02ZM4711.54 5488.69C4754.02 5489.98 4789.51 5456.58 4790.8 5414.09C4792.1 5371.6 4758.71 5336.1 4716.22 5334.81C4673.74 5333.51 4638.25 5366.91 4636.95 5409.41C4635.66 5451.9 4669.05 5487.4 4711.54 5488.69ZM5314.43 5485.96C5356.91 5487.25 5392.4 5453.85 5393.69 5411.35C5394.99 5368.86 5361.59 5333.36 5319.11 5332.07C5276.62 5330.78 5241.14 5364.18 5239.84 5406.67C5238.55 5449.17 5271.94 5484.66 5314.43 5485.96ZM3848.75 5956.79C3926.79 5959.17 3991.98 5897.82 3994.35 5819.76C3996.73 5741.71 3935.39 5676.51 3857.36 5674.13C3779.32 5671.76 3714.13 5733.11 3711.76 5811.16C3709.38 5889.22 3770.72 5954.42 3848.75 5956.79Z" fill="#202020"/>
</svg>
